<svg width="88" height="88" viewBox="0 0 88 88" fill="none" xmlns="http://www.w3.org/2000/svg">
<path d="M11.2292 17.3461C11.3856 17.3461 11.5124 17.2193 11.5124 17.0629C11.5124 16.9066 11.3856 16.7798 11.2292 16.7798C11.0728 16.7798 10.946 16.9066 10.946 17.0629C10.946 17.2193 11.0728 17.3461 11.2292 17.3461Z" fill="white"/>
<path d="M11.3735 34.1606C14.3029 43.4586 19.791 45.6003 29.5729 42.5164C39.3548 39.4377 45.1416 37.5791 42.2122 28.276C39.2827 18.9729 31.5499 6.56023 13.8292 13.4024C9.45311 15.0911 4.2996 21.125 3.97011 23.6785C3.57883 26.7109 9.78261 29.1101 11.3735 34.1606Z" fill="#ABA49E" stroke="#111111" stroke-width="1.13264" stroke-miterlimit="10"/>
<path d="M11.3733 34.1607C14.3028 43.4586 19.7909 45.6003 29.5728 42.5164C39.3547 39.4377 51.5512 24.0544 42.212 28.2761C31.663 33.0486 29.9898 19.2201 16.8306 18.0875C12.1919 17.6859 5.69985 22.2267 5.37035 24.7803C4.97908 27.8127 9.7825 29.1101 11.3733 34.1607Z" fill="#EDB1A6" stroke="#111111" stroke-width="1.13264" stroke-miterlimit="10"/>
<path d="M77.3909 34.1608C74.4615 43.4639 68.9733 45.6005 59.1914 42.5218C49.4095 39.4431 43.6228 37.5845 46.5522 28.2814C49.4816 18.9783 57.2144 6.5656 74.9351 13.4078C79.3112 15.0964 84.4647 21.1303 84.7942 23.6839C85.1855 26.7112 78.9817 29.1103 77.3909 34.1608Z" fill="#ABA49E" stroke="#111111" stroke-width="1.13264" stroke-miterlimit="10"/>
<path d="M77.3909 34.1609C74.4615 43.464 68.9733 45.6005 59.1914 42.5218C49.4095 39.4431 37.213 24.0598 46.5522 28.2814C57.1012 33.054 58.7744 19.2255 71.9336 18.0928C76.5723 17.6913 83.0644 22.2321 83.3939 24.7857C83.7903 27.8129 78.9817 29.1103 77.3909 34.1609Z" fill="#EDB1A6" stroke="#111111" stroke-width="1.13264" stroke-miterlimit="10"/>
<path d="M58.0587 43.3918C60.6277 43.4742 69.3954 45.0496 70.8781 62.9762C70.8833 63.0329 70.8833 63.0843 70.8833 63.141C70.873 63.5992 70.873 66.0858 72.3094 66.8581C73.7818 67.6458 71.1149 69.942 68.8394 68.8505C68.479 68.6806 68.0723 68.6343 67.7016 68.7836L67.5626 68.8402C67.5008 68.866 67.4442 68.8814 67.3824 68.8968C66.9293 69.0101 65.1017 69.3808 65.1171 68.0886C65.1377 66.611 65.4826 67.3317 65.0811 65.0922C64.6795 62.8527 60.8491 59.9438 57.2041 56.1855C50.8149 49.5956 53.5075 45.4666 55.0057 44.2053C55.9788 43.3918 57.6623 43.3815 58.0587 43.3918Z" fill="#ABA49E" stroke="#111111" stroke-width="1.13264" stroke-miterlimit="10"/>
<path d="M70.7032 63.6609C70.6929 64.1191 70.8731 66.0909 72.3095 66.858C73.7819 67.6457 71.1151 69.9419 68.8395 68.8504C68.4791 68.6805 68.0724 68.6342 67.7017 68.7835L67.5627 68.8401C67.5009 68.8659 67.4443 68.8813 67.3825 68.8968C66.9294 69.01 65.1018 69.3807 65.1172 68.0885C65.1378 66.6109 65.4827 67.3317 65.0812 65.0921L70.7032 63.6609Z" fill="white" stroke="#111111" stroke-width="1.13264" stroke-miterlimit="10"/>
<path d="M30.7055 43.3918C28.1365 43.4742 19.3688 45.0496 17.8861 62.9762C17.8809 63.0329 17.8809 63.0843 17.8809 63.141C17.8912 63.5992 17.8912 66.0858 16.4549 66.8581C14.9824 67.6458 17.6493 69.942 19.9248 68.8505C20.2852 68.6806 20.692 68.6343 21.0626 68.7836L21.2016 68.8402C21.2634 68.866 21.3201 68.8814 21.3818 68.8968C21.8349 69.0101 23.6626 69.3808 23.6471 68.0886C23.6265 66.611 23.2816 67.3317 23.6832 65.0922C24.0847 62.8527 27.9151 59.9438 31.5602 56.1855C37.9493 49.5956 35.2567 45.4666 33.7585 44.2053C32.7855 43.3918 31.1071 43.3815 30.7055 43.3918Z" fill="#ABA49E" stroke="#111111" stroke-width="1.13264" stroke-miterlimit="10"/>
<path d="M18.0663 63.6609C18.0766 64.1191 17.8964 66.0909 16.46 66.858C14.9875 67.6457 17.6544 69.9419 19.93 68.8504C20.2904 68.6805 20.6971 68.6342 21.0678 68.7835L21.2068 68.8401C21.2686 68.8659 21.3252 68.8813 21.387 68.8968C21.84 69.01 23.6677 69.3807 23.6522 68.0885C23.6316 66.6109 23.2867 67.3317 23.6883 65.0921L18.0663 63.6609Z" fill="white" stroke="#111111" stroke-width="1.13264" stroke-miterlimit="10"/>
<path opacity="0.4" d="M10.8225 81.1705C11.8934 83.5903 15.2295 83.9403 17.5411 83.8528C18.1023 83.8322 18.5708 83.5697 19.1217 83.4821C20.7228 83.2247 22.3446 83.06 23.9611 82.8901C25.0526 82.7717 26.4375 82.6584 27.462 83.1835C28.5792 83.755 29.6552 84.3625 30.8136 84.8465C33.1355 85.8144 35.5913 86.4682 38.0883 86.772C40.4359 87.0603 42.8144 87.0397 45.1775 86.9058C48.1379 86.7359 51.0879 86.3858 54.007 85.8555C55.4794 85.5878 56.9467 85.2738 58.3985 84.9134C59.1245 84.7332 59.8504 84.5427 60.5712 84.3419C61.1941 84.1669 61.9355 84.0485 62.4812 83.6881C63.0887 83.2865 63.5521 82.957 64.278 82.7356C65.1635 82.4679 66.0851 82.3289 67.0066 82.2671C67.9899 82.2002 69.1277 82.0972 70.075 82.4216C70.9039 82.7099 71.5217 82.854 72.4278 82.8283C73.2928 82.8026 74.1577 82.7562 75.0226 82.7099C75.6198 82.679 76.1295 82.8334 76.737 82.7202C78.0138 82.4782 79.2031 81.7832 80.0165 80.769C80.624 80.0173 81.0102 79.1009 81.1595 78.1484C81.2676 77.4431 81.4581 76.6709 81.4838 75.9604C81.525 74.7969 80.4284 73.7723 79.6047 73.1442C76.8297 71.0231 73.1949 70.4259 69.9309 69.4477C69.6786 69.3705 69.4263 69.2984 69.1741 69.2212C67.125 68.6188 64.5869 67.826 62.4709 68.4695C61.9664 68.624 61.4103 68.5519 60.8904 68.5519C59.4076 68.5519 57.93 68.557 56.4473 68.557C53.3634 68.5622 50.2744 68.5622 47.1906 68.5673C41.1412 68.5725 35.0919 68.5879 29.0426 68.5879C26.8545 68.5879 24.6459 68.5931 22.499 69.0255C19.7137 69.5867 17.0932 70.8944 14.9361 72.7427C14.0454 73.5098 13.4585 74.7042 12.4391 75.3168C12.2641 75.425 12.0736 75.4713 11.9243 75.6103C11.5278 75.9758 11.2395 76.6245 11.0182 77.1085C10.5548 78.1381 10.3386 79.3068 10.5857 80.4189C10.6372 80.6917 10.7195 80.9389 10.8225 81.1705Z" fill="#D1D1D1"/>
<path d="M66.9654 61.9414C66.7234 61.7972 66.4711 61.6685 66.224 61.5449C65.426 46.141 55.953 29.3059 44.3744 29.311C32.8008 29.3162 23.3382 46.1462 22.5453 61.5449C22.2982 61.6634 22.0511 61.7921 21.8039 61.9362C16.3879 65.1848 12.4339 68.9123 13.86 73.2884C15.2861 77.6593 20.6765 77.2475 26.9678 76.676C28.1879 76.5627 29.2948 76.2126 30.2781 75.6978C33.5319 76.4752 38.7318 77.1702 44.2302 77.1702C49.255 77.1702 54.7947 76.3002 58.1411 75.497C59.2068 76.1251 60.4321 76.5473 61.8016 76.6708C68.0929 77.2423 73.4832 77.6542 74.9093 73.2832C76.3303 68.9225 72.3815 65.19 66.9654 61.9414Z" fill="#ABA49E" stroke="#111111" stroke-width="1.13264" stroke-miterlimit="10"/>
<path opacity="0.7" d="M59.0318 62.1833C58.6251 68.6085 51.7778 71.5019 44.6473 71.5019C37.5168 71.5019 29.5317 67.6354 29.6759 61.2051C29.9693 47.8451 36.6365 38.6501 43.7669 38.6501C50.8974 38.6501 59.9174 48.3291 59.0318 62.1833Z" fill="#F2E9E4"/>
<path d="M18.9945 79.5048C21.9316 78.5798 23.1521 74.1452 21.7205 69.5999C20.289 65.0546 16.7475 62.1198 13.8104 63.0448C10.8733 63.9698 9.65281 68.4044 11.0844 72.9497C12.5159 77.4951 16.0574 80.4299 18.9945 79.5048Z" fill="#ABA49E" stroke="#111111" stroke-width="1.13264" stroke-miterlimit="10"/>
<path d="M64.937 41.6103C66.4197 34.1143 61.9097 28.4717 59.8864 22.9939C57.338 16.0796 50.192 13.1348 43.7308 13.1399C37.3108 13.1399 31.1071 15.8788 28.5844 21.8973C26.9008 25.9181 23.5338 32.2455 23.5338 37.7748C23.5338 48.7254 31.7352 49.2763 43.2263 49.2711C54.7175 49.266 63.4233 49.2763 64.937 41.6103Z" fill="#ABA49E"/>
<path d="M52.864 33.4915C54.1768 33.8416 54.7071 34.1454 54.9388 33.2702C55.1704 32.3949 54.5629 31.1078 53.2964 30.5982C51.6953 29.9546 50.4133 31.1181 50.1765 31.9934C49.9448 32.8686 51.5511 33.1363 52.864 33.4915Z" fill="#111111"/>
<path d="M52.0506 32.5905C52.207 32.5905 52.3338 32.4637 52.3338 32.3073C52.3338 32.1509 52.207 32.0242 52.0506 32.0242C51.8942 32.0242 51.7675 32.1509 51.7675 32.3073C51.7675 32.4637 51.8942 32.5905 52.0506 32.5905Z" fill="white"/>
<path d="M35.9876 33.4856C34.7005 33.9232 34.1445 34.3042 33.8562 33.4444C33.5679 32.5847 34.0673 31.2049 35.3235 30.6746C37.0173 29.959 38.2374 31.0093 38.5258 31.869C38.8141 32.7288 37.2747 33.0532 35.9876 33.4856Z" fill="#111111"/>
<path d="M36.0701 32.0138C36.2265 32.0138 36.3533 31.8871 36.3533 31.7307C36.3533 31.5743 36.2265 31.4475 36.0701 31.4475C35.9138 31.4475 35.787 31.5743 35.787 31.7307C35.787 31.8871 35.9138 32.0138 36.0701 32.0138Z" fill="white"/>
<path d="M75.486 20.9345C75.6424 20.9345 75.7692 20.8077 75.7692 20.6513C75.7692 20.4949 75.6424 20.3682 75.486 20.3682C75.3296 20.3682 75.2029 20.4949 75.2029 20.6513C75.2029 20.8077 75.3296 20.9345 75.486 20.9345Z" fill="white"/>
<path d="M64.937 41.6103C66.4197 34.1143 61.9097 28.4717 59.8864 22.9939C57.338 16.0796 50.192 13.1348 43.7308 13.1399C37.3108 13.1399 31.1071 15.8788 28.5844 21.8973C26.9008 25.9181 23.5338 32.2455 23.5338 37.7748C23.5338 48.7254 31.7352 49.2763 43.2263 49.2711C54.7175 49.266 63.4233 49.2763 64.937 41.6103Z" stroke="#111111" stroke-width="1.13264" stroke-miterlimit="10"/>
<path d="M77.6777 72.9531C79.1092 68.4078 77.8887 63.9732 74.9516 63.0482C72.0145 62.1231 68.4731 65.0579 67.0415 69.6032C65.61 74.1485 66.8305 78.5831 69.7675 79.5082C72.7046 80.4332 76.2461 77.4984 77.6777 72.9531Z" fill="#ABA49E" stroke="#111111" stroke-width="1.13264" stroke-miterlimit="10"/>
<path d="M50.4649 35.8442C42.9792 29.3109 37.5322 36.3951 36.0392 40.3078C34.4638 44.4368 44.2869 57.9049 35.895 69.8852C34.3299 72.1196 30.2267 69.2468 28.9551 69.6484C24.8312 70.956 28.3115 78.8691 29.8097 77.5717C32.1419 75.5484 38.0728 75.7749 42.3768 72.2277C44.7554 70.2713 48.627 67.5787 52.2051 53.8892C54.7844 43.9889 54.9697 39.7827 50.4649 35.8442Z" fill="#ABA49E" stroke="#111111" stroke-width="1.13264" stroke-miterlimit="10"/>
<path opacity="0.3" d="M47.2163 38.0117C47.4325 38.0632 47.6487 38.1456 47.8701 38.1405C48.0915 38.1353 48.3335 38.0066 48.3798 37.7904C48.4056 37.6771 48.3747 37.5638 48.3386 37.4557C48.0246 36.5033 47.1339 35.7774 46.1454 35.6281C45.5791 35.5457 45.0437 35.695 44.4979 35.834C44.1273 35.9267 43.7566 36.009 43.3962 36.1429C42.7475 36.3849 42.3408 36.8431 42.0216 37.4454C41.8157 37.8264 41.5222 38.3773 41.898 38.7583C42.2584 39.1186 43.0719 38.8252 43.4889 38.7068C44.6884 38.3721 45.9395 37.6977 47.2163 38.0117Z" fill="white"/>
<path opacity="0.5" d="M59.0935 41.1162C61.2175 41.1162 62.9393 39.3944 62.9393 37.2704C62.9393 35.1464 61.2175 33.4246 59.0935 33.4246C56.9695 33.4246 55.2477 35.1464 55.2477 37.2704C55.2477 39.3944 56.9695 41.1162 59.0935 41.1162Z" fill="#FCB1B1"/>
<path opacity="0.5" d="M29.2948 41.1162C31.4188 41.1162 33.1406 39.3944 33.1406 37.2704C33.1406 35.1464 31.4188 33.4246 29.2948 33.4246C27.1708 33.4246 25.449 35.1464 25.449 37.2704C25.449 39.3944 27.1708 41.1162 29.2948 41.1162Z" fill="#FCB1B1"/>
<path d="M37.1049 46.9287C37.1049 46.9287 40.3741 44.8282 42.9791 45.5284Z" fill="#ABA49E"/>
<path d="M37.1049 46.9287C37.1049 46.9287 40.3741 44.8282 42.9791 45.5284" stroke="#111111" stroke-width="1.13264" stroke-miterlimit="10" stroke-linecap="round" stroke-linejoin="round"/>
<path d="M38.5619 52.3192C38.5619 52.3192 40.9198 51.1402 43.216 51.9845Z" fill="#ABA49E"/>
<path d="M38.5619 52.3192C38.5619 52.3192 40.9198 51.1402 43.216 51.9845" stroke="#111111" stroke-width="1.13264" stroke-miterlimit="10" stroke-linecap="round" stroke-linejoin="round"/>
<path d="M39.329 58.6465C39.329 58.6465 40.9507 58.0853 42.3511 59.0687Z" fill="#ABA49E"/>
<path d="M39.329 58.6465C39.329 58.6465 40.9507 58.0853 42.3511 59.0687" stroke="#111111" stroke-width="1.13264" stroke-miterlimit="10" stroke-linecap="round" stroke-linejoin="round"/>
<path d="M38.5619 64.8191C38.5619 64.8191 40.0807 64.9581 40.5183 65.8024Z" fill="#ABA49E"/>
<path d="M38.5619 64.8191C38.5619 64.8191 40.0807 64.9581 40.5183 65.8024" stroke="#111111" stroke-width="1.13264" stroke-miterlimit="10" stroke-linecap="round" stroke-linejoin="round"/>
<path d="M47.3965 15.5647C47.3965 15.5647 53.312 21.681 56.8952 20.6462C60.4785 19.6114 63.0115 17.4645 63.0115 17.4645L58.3522 14.4836L50.3002 12.7949L47.3965 15.5647Z" fill="#C92323" stroke="#111111" stroke-width="1.13264" stroke-miterlimit="10"/>
<path d="M46.5419 8.69176C46.5419 8.69176 53.693 1.29871 59.0628 2.16364C64.4325 3.02856 65.4416 3.92438 64.7002 6.44193C63.9486 8.99552 63.0116 10.2517 63.0116 12.0125C63.0116 15.7502 64.7774 17.3256 62.0797 17.722C59.382 18.1184 54.1821 13.49 47.8599 14.8955C41.5377 16.301 46.5419 8.69176 46.5419 8.69176Z" fill="#FF4040" stroke="#111111" stroke-width="1.13264" stroke-miterlimit="10"/>
<path d="M42.2997 15.5647C42.2997 15.5647 36.3842 21.681 32.8009 20.6462C29.2177 19.6114 26.6847 17.4645 26.6847 17.4645L31.344 14.4836L39.396 12.7949L42.2997 15.5647Z" fill="#C92323" stroke="#111111" stroke-width="1.13264" stroke-miterlimit="10"/>
<path d="M43.1594 8.69176C43.1594 8.69176 36.0083 1.29871 30.6386 2.16364C25.2688 3.02856 24.3112 3.23965 25.3358 5.69542C26.3397 8.11 26.8442 8.27475 26.6898 12.0125C26.5302 15.7502 24.9239 17.3256 27.6216 17.722C30.3194 18.1184 35.5192 13.49 41.8414 14.8955C48.1636 16.301 43.1594 8.69176 43.1594 8.69176Z" fill="#FF4040" stroke="#111111" stroke-width="1.13264" stroke-miterlimit="10"/>
<path d="M42.2532 8.69188C42.2532 8.69188 41.1205 13.0937 41.0485 13.763C40.9764 14.4323 41.2698 15.915 42.871 15.915C44.4721 15.915 47.2008 15.7142 47.4015 15.5598C48.6114 14.6331 47.4015 13.0114 46.5469 8.69188C46.2792 7.37905 42.2532 8.69188 42.2532 8.69188Z" fill="#FF4040" stroke="#111111" stroke-width="1.13264" stroke-miterlimit="10"/>
<path d="M32.626 7.71854C32.626 7.71854 36.9969 7.2037 41.5223 10.2567" stroke="#111111" stroke-width="1.13264" stroke-miterlimit="10" stroke-linecap="round" stroke-linejoin="round"/>
<path d="M34.8036 12.3523C34.8036 12.3523 37.3932 10.8439 41.1 11.6779" stroke="#111111" stroke-width="1.13264" stroke-miterlimit="10" stroke-linecap="round" stroke-linejoin="round"/>
<path d="M56.2517 7.71854C56.2517 7.71854 51.8808 7.2037 47.3553 10.2567" stroke="#111111" stroke-width="1.13264" stroke-miterlimit="10" stroke-linecap="round" stroke-linejoin="round"/>
<path d="M54.0739 12.3523C54.0739 12.3523 51.4843 10.8439 47.7775 11.6779" stroke="#111111" stroke-width="1.13264" stroke-miterlimit="10" stroke-linecap="round" stroke-linejoin="round"/>
</svg>
