<svg width="88" height="88" viewBox="0 0 88 88" fill="none" xmlns="http://www.w3.org/2000/svg">
<path opacity="0.4" d="M8.9457 77.4298C10.2047 80.2746 14.405 80.2746 17.0891 80.2049C17.9837 80.1781 18.9374 80.2853 19.7785 79.921C20.0089 79.8246 20.2446 79.637 20.5125 79.6531C20.8553 79.6799 21.0589 79.9799 21.1875 80.2692C21.5197 80.9925 21.4072 81.93 20.8018 82.4819C20.6518 82.6158 20.4803 82.7283 20.3678 82.8944C20.0678 83.3176 20.2607 83.9498 20.6625 84.2766C21.0643 84.6034 21.6054 84.6945 22.1251 84.7266C23.4216 84.807 24.986 84.3838 25.3717 83.1408C25.5271 82.6372 25.4521 82.0908 25.5003 81.5604C25.5271 81.255 25.6074 80.9335 25.7842 80.6817C26.0628 80.2746 26.2717 80.2639 26.6575 80.5157C27.2897 80.9282 27.8576 81.4371 28.4522 81.914C31.881 84.657 36.1831 86.1517 40.5119 86.5803C41.1173 86.6393 41.728 86.6928 42.3334 86.741C43.7853 86.8535 45.2318 86.9553 46.689 86.9982C47.0801 87.0089 47.2194 86.9714 47.5569 86.8482C48.1088 86.65 48.6927 86.5107 49.2553 86.3339C50.3803 85.9696 51.4947 85.5678 52.593 85.1231C54.7895 84.2391 56.9218 83.2105 58.9737 82.0318C59.3434 81.8175 59.7077 81.6032 60.072 81.3836C61.3417 80.6175 62.5846 79.787 63.9722 79.2674C65.0759 78.8602 66.2384 78.6566 67.4117 78.5816C68.435 78.512 69.619 78.4048 70.6048 78.7423C71.4673 79.0424 72.1102 79.1924 73.0531 79.1656C73.9532 79.1388 74.8532 79.0906 75.7533 79.0424C76.3748 79.0102 76.9051 79.1709 77.5373 79.0531C78.866 78.8013 80.1036 78.078 80.95 77.0226C81.5822 76.2404 81.984 75.2868 82.1394 74.2956C82.2519 73.5617 82.4501 72.7581 82.4769 72.0187C82.5198 70.8079 81.3786 69.7418 80.5214 69.0882C77.6338 66.8809 73.8514 66.2595 70.4548 65.2415C70.1922 65.1612 69.9297 65.0862 69.6672 65.0058C67.5349 64.379 64.8937 63.5539 62.6918 64.2236C62.1668 64.3843 61.5881 64.3093 61.047 64.3093C59.5041 64.3093 57.9665 64.3147 56.4236 64.3147C53.2144 64.3201 50 64.3201 46.7908 64.3254C40.4958 64.3308 34.2008 64.3468 27.9058 64.3468C25.6288 64.3468 23.3305 64.3522 21.0964 64.8022C18.198 65.3862 15.4711 66.747 13.2263 68.6703C12.2995 69.4686 11.6887 70.7115 10.6279 71.349C10.4458 71.4616 10.2476 71.5098 10.0922 71.6544C9.67968 72.0348 9.37966 72.7098 9.14929 73.2134C8.66712 74.2849 8.4421 75.5011 8.69926 76.6583C8.75284 76.9315 8.83856 77.194 8.9457 77.4298Z" fill="#D1D1D1"/>
<path d="M23.578 82.2178C23.9747 81.8669 23.8387 81.065 23.2741 80.4267C22.7096 79.7883 21.9303 79.5553 21.5336 79.9062C21.1368 80.2571 21.2728 81.059 21.8374 81.6973C22.4019 82.3357 23.1812 82.5687 23.578 82.2178Z" fill="white" stroke="#111111" stroke-width="1.17864" stroke-miterlimit="10" stroke-linejoin="round"/>
<path d="M23.6251 77.2158C24.4773 77.2158 25.1681 76.7865 25.1681 76.2568C25.1681 75.7272 24.4773 75.2979 23.6251 75.2979C22.773 75.2979 22.0822 75.7272 22.0822 76.2568C22.0822 76.7865 22.773 77.2158 23.6251 77.2158Z" fill="white" stroke="#111111" stroke-width="1.17864" stroke-miterlimit="10" stroke-linejoin="round"/>
<path d="M58.2129 38.1221C60.8863 38.2079 70.01 39.8472 71.553 58.5019C71.5583 58.5609 71.5583 58.6144 71.5583 58.6734C71.5476 59.1502 71.5476 61.7378 73.0423 62.5415C74.5746 63.3612 71.7994 65.7506 69.4314 64.6148C69.0564 64.438 68.6331 64.3898 68.2474 64.5452L68.1028 64.6041C68.0385 64.6309 67.9795 64.647 67.9152 64.663C67.4438 64.7809 65.5419 65.1666 65.558 63.8219C65.5794 62.2843 65.9383 63.0344 65.5205 60.7039C65.1026 58.3734 61.1166 55.3464 57.3235 51.4354C50.6749 44.5779 53.4769 40.2812 55.0359 38.9686C56.0485 38.1168 57.795 38.1061 58.2129 38.1221Z" fill="#FFD8D7" stroke="#111111" stroke-width="1.17864" stroke-miterlimit="10"/>
<path d="M71.3655 59.209C71.3548 59.6858 71.5423 61.7377 73.037 62.536C74.5693 63.3557 71.7941 65.7451 69.4261 64.6093C69.0511 64.4325 68.6278 64.3843 68.2421 64.5397L68.0974 64.5986C68.0331 64.6254 67.9742 64.6415 67.9099 64.6575C67.4385 64.7754 65.5366 65.1611 65.5526 63.8164C65.5741 62.2788 65.933 63.0289 65.5151 60.6984L71.3655 59.209Z" fill="#AD6360" stroke="#111111" stroke-width="1.17864" stroke-miterlimit="10"/>
<path d="M67.3687 57.4251C67.1169 57.2751 66.8544 57.1411 66.5972 57.0126C65.7668 40.983 55.9091 23.4641 43.8601 23.4695C31.8165 23.4748 21.9695 40.9884 21.1445 57.0126C20.8873 57.1358 20.6302 57.2697 20.373 57.4197C14.7369 60.8003 10.6224 64.6791 12.1064 69.2329C13.5904 73.7814 19.1997 73.3528 25.7465 72.7582C27.0163 72.6403 28.1681 72.276 29.1914 71.7402C32.5773 72.5492 37.9883 73.2725 43.7101 73.2725C48.939 73.2725 54.7036 72.3671 58.186 71.5313C59.295 72.1849 60.57 72.6242 61.9951 72.7528C68.542 73.3475 74.1512 73.7761 75.6352 69.2276C77.1193 64.6845 73.0047 60.8003 67.3687 57.4251Z" fill="#DDA6A6" stroke="#111111" stroke-width="1.17864" stroke-miterlimit="10"/>
<path opacity="0.6" d="M59.1183 57.6713C58.695 64.3575 51.5696 67.3683 44.1495 67.3683C36.7294 67.3683 28.42 63.3449 28.57 56.6534C28.87 42.7508 35.8079 33.1824 43.228 33.1824C50.6481 33.1824 60.0344 43.2598 59.1183 57.6713Z" fill="white"/>
<path d="M44.4389 69.3938C55.934 69.3938 65.2526 67.5876 65.2526 65.3596C65.2526 63.1316 55.934 61.3254 44.4389 61.3254C32.9438 61.3254 23.6251 63.1316 23.6251 65.3596C23.6251 67.5876 32.9438 69.3938 44.4389 69.3938Z" fill="#E2E2E2" stroke="#111111" stroke-width="1.17864" stroke-miterlimit="10"/>
<path d="M61.363 64.5185C61.2451 64.6256 61.2183 64.6685 61.1915 64.8667C61.1701 64.9953 61.1433 65.1185 61.1112 65.2417C60.9665 65.7668 60.6986 66.2489 60.3665 66.6722C59.5254 67.7597 58.3092 68.5366 57.0877 69.142C55.4483 69.9563 53.6804 70.4974 51.8963 70.8831C49.748 71.3492 47.5514 71.5903 45.3549 71.6546C44.9638 71.6653 44.578 71.6707 44.1869 71.6707C41.4332 71.6707 38.6634 71.4028 35.9847 70.7706C33.8899 70.2778 31.7737 69.5652 29.9575 68.3866C28.7414 67.599 27.5038 66.4793 27.2091 64.9953C27.1556 64.7221 27.1663 64.5346 27.2466 64.2774C27.3216 64.047 27.2949 63.8434 27.252 63.6024C27.2091 63.3666 27.1609 63.1255 27.1823 62.8845C27.2198 62.4076 27.8092 61.9308 28.1467 62.2737C27.852 61.5397 27.9699 60.6129 28.5699 60.0986C29.17 59.5843 30.2468 59.6968 30.6058 60.4039C30.8683 59.3592 32.288 58.8128 33.1827 59.4235C33.3166 58.7431 33.8363 58.127 34.5114 57.9717C35.1864 57.8163 35.9739 58.1967 36.1936 58.8503C36.44 58.2717 36.8686 57.7199 37.474 57.5484C38.0794 57.377 38.8455 57.7413 38.9205 58.3628C39.6384 57.5216 41.1439 57.5645 41.8189 58.4431C42.2475 57.7895 42.7618 57.1948 43.3512 56.6752C43.5333 56.5144 43.7316 56.3591 43.9673 56.3001C44.6691 56.118 45.2477 56.8252 45.6281 57.4413C46.0245 57.0395 46.4639 56.6162 47.021 56.5573C47.5782 56.493 48.2104 57.0287 48.0122 57.5538C48.3015 57.1037 48.864 56.8144 49.389 56.9323C49.9087 57.0502 50.3052 57.6341 50.1498 58.1431C50.6695 57.9342 51.1945 57.7306 51.7142 57.5216C51.8856 57.452 52.0624 57.3877 52.2446 57.3823C52.85 57.377 53.2035 58.052 53.4125 58.6199C53.7822 58.3788 54.184 58.127 54.6233 58.1592C55.0626 58.1913 55.4805 58.6681 55.2822 59.0592C55.7912 59.2521 56.2305 58.3895 56.7555 58.5288C56.8895 58.5663 56.9966 58.6628 57.0931 58.7646C57.4252 59.1235 57.6502 59.5789 57.7306 60.0611C58.1538 59.8736 58.5932 59.7289 59.0485 59.6325C59.3378 60.0879 59.4664 60.6504 59.3968 61.1861C59.8147 60.9343 60.3933 60.9879 60.7576 61.3147C61.2933 61.7915 61.2772 62.6219 61.213 63.3345C61.3415 63.3291 61.4701 63.3291 61.6041 63.3238C61.7273 63.3184 61.7326 63.8274 61.7219 63.897C61.6898 64.1006 61.5933 64.2988 61.438 64.4435C61.4005 64.481 61.3844 64.5024 61.363 64.5185Z" fill="white" stroke="#111111" stroke-width="1.17864" stroke-miterlimit="10" stroke-linejoin="round"/>
<path d="M44.4389 69.3935C32.9418 69.3935 23.6251 67.5881 23.6251 65.3594C23.6251 67.5881 26.4271 83.0551 44.9157 83.0551C63.8222 83.0551 65.2526 67.5881 65.2526 65.3594C65.2526 67.5881 55.936 69.3935 44.4389 69.3935Z" fill="white" stroke="#111111" stroke-width="1.17864" stroke-miterlimit="10"/>
<path d="M17.4507 75.7022C20.5071 74.7396 21.7771 70.1249 20.2874 65.395C18.7978 60.6651 15.1124 57.6111 12.056 58.5737C8.99966 59.5363 7.72961 64.151 9.2193 68.8809C10.709 73.6108 14.3943 76.6649 17.4507 75.7022Z" fill="#F4CBCB" stroke="#111111" stroke-width="1.17864" stroke-miterlimit="10"/>
<path d="M21.391 46.576C21.1339 48.9226 21.4285 57.0445 37.5384 60.0822C37.5867 60.0929 37.6349 60.0983 37.6884 60.1036C38.1063 60.1358 40.3672 60.3715 40.8815 61.7484C41.4065 63.1574 43.8388 60.9555 43.1423 58.7803C43.0298 58.4375 43.0459 58.0624 43.2281 57.741L43.2977 57.6231C43.3245 57.5696 43.3513 57.5213 43.3727 57.4624C43.5334 57.0606 44.112 55.4319 42.9334 55.3301C41.5887 55.2069 42.1994 55.5926 40.2118 55.014C38.2242 54.4354 36.0812 50.6799 33.1346 47.01C27.97 40.581 23.8662 42.6383 22.5268 43.8812C21.6589 44.6849 21.4285 46.2117 21.391 46.576Z" fill="#FFD8D7" stroke="#111111" stroke-width="1.17864" stroke-miterlimit="10"/>
<path d="M72.1906 15.5779C72.9674 22.6123 70.1119 25.6232 63.0775 26.4C56.0432 27.1768 51.8697 27.6161 51.0929 20.5764C50.316 13.5421 51.6875 3.04144 64.7919 2.47355C68.0278 2.33425 72.9781 4.85762 73.905 6.4595C75.0032 8.36676 71.7673 11.758 72.1906 15.5779Z" fill="#FFD8D7" stroke="#111111" stroke-width="1.17864" stroke-miterlimit="10"/>
<path d="M72.1905 15.578C72.9673 22.6123 70.1118 25.6232 63.0775 26.4C56.0431 27.1769 44.0102 20.4693 51.0875 20.5818C59.0861 20.7051 56.236 11.0241 64.2132 6.46492C67.0259 4.85768 72.3994 5.99882 73.3263 7.60606C74.4353 9.50796 71.7673 11.7581 72.1905 15.578Z" fill="#FF8073" stroke="#111111" stroke-width="1.17864" stroke-miterlimit="10"/>
<path d="M15.5513 15.5779C14.7745 22.6123 17.63 25.6232 24.6644 26.4C31.6987 27.1768 35.8722 27.6161 36.649 20.5764C37.4258 13.5421 36.0543 3.04144 22.95 2.47355C19.7141 2.33425 14.7638 4.85762 13.8369 6.4595C12.7386 8.36676 15.9745 11.758 15.5513 15.5779Z" fill="#FFD8D7" stroke="#111111" stroke-width="1.17864" stroke-miterlimit="10"/>
<path d="M15.5514 15.578C14.7745 22.6123 17.6301 25.6232 24.6644 26.4C31.6988 27.1769 43.7316 20.4693 36.6544 20.5818C28.6557 20.7051 31.5059 11.0241 23.5286 6.46492C20.716 4.85768 15.3424 5.99882 14.4156 7.60606C13.3066 9.50796 15.9746 11.7581 15.5514 15.578Z" fill="#FF8073" stroke="#111111" stroke-width="1.17864" stroke-miterlimit="10"/>
<path d="M67.0634 36.2684C68.7349 28.4679 63.6453 22.5961 61.3684 16.8958C58.4915 9.70072 50.4285 6.63625 43.137 6.64161C35.8937 6.64161 28.8915 9.49178 26.0467 15.7547C24.1448 19.9388 20.3463 26.5232 20.3463 32.2771C20.3463 43.6724 29.604 44.2456 42.5637 44.2403C55.5234 44.2349 65.3544 44.2403 67.0634 36.2684Z" fill="#FFD8D7" stroke="#111111" stroke-width="1.17864" stroke-miterlimit="10"/>
<path d="M51.5696 26.1589C52.2768 27.3857 53.5143 27.9965 54.334 27.525C55.1537 27.0536 55.6466 25.6553 55.0948 24.3534C54.393 22.7033 52.5875 22.6122 51.7732 23.0891C50.9481 23.5552 50.857 24.932 51.5696 26.1589Z" fill="#111111"/>
<path d="M36.2152 26.0465C35.5884 27.3163 34.3936 28.002 33.5472 27.5841C32.7007 27.1663 32.0524 25.7787 32.5882 24.4661C33.3061 22.6981 34.9776 22.5695 35.8241 22.9874C36.6652 23.4107 36.842 24.7768 36.2152 26.0465Z" fill="#111111"/>
<path d="M52.9089 24.9853C53.0717 24.9853 53.2036 24.8534 53.2036 24.6907C53.2036 24.5279 53.0717 24.396 52.9089 24.396C52.7462 24.396 52.6143 24.5279 52.6143 24.6907C52.6143 24.8534 52.7462 24.9853 52.9089 24.9853Z" fill="white"/>
<path d="M33.9114 24.9853C34.0741 24.9853 34.206 24.8534 34.206 24.6907C34.206 24.5279 34.0741 24.396 33.9114 24.396C33.7486 24.396 33.6167 24.5279 33.6167 24.6907C33.6167 24.8534 33.7486 24.9853 33.9114 24.9853Z" fill="white"/>
<path d="M48.1462 32.1004C48.1462 34.3024 45.2907 36.6596 43.871 36.6596C42.4512 36.6596 39.5957 34.3024 39.5957 32.1004C39.5957 29.8985 42.4512 28.6824 43.871 28.6824C45.2907 28.6824 48.1462 29.8985 48.1462 32.1004Z" fill="#EF5C54" stroke="#111111" stroke-width="1.17864" stroke-miterlimit="10"/>
<path d="M45.2961 32.7966C44.5407 32.3841 43.6299 32.3359 42.837 32.6788L42.2584 32.9252C40.1851 33.8145 37.7742 32.4055 37.7474 30.2197C37.7474 30.2036 37.7474 30.1875 37.7474 30.1715C37.7474 28.1303 39.4833 26.4587 41.6048 26.4587H46.1426C48.2641 26.4587 50 28.1303 50 30.1715C49.9946 32.4912 47.3909 33.9485 45.2961 32.7966Z" fill="#FFAEAE"/>
<path d="M45.2961 32.7966C44.5407 32.3841 43.6299 32.3359 42.837 32.6788L42.2584 32.9252C40.1851 33.8145 37.7742 32.4055 37.7474 30.2197C37.7474 30.2036 37.7474 30.1875 37.7474 30.1715C37.7474 28.1303 39.4833 26.4587 41.6048 26.4587H46.1426C48.2641 26.4587 50 28.1303 50 30.1715C49.9946 32.4912 47.3909 33.9485 45.2961 32.7966Z" stroke="#111111" stroke-width="1.17864" stroke-miterlimit="10"/>
<path d="M46.6942 30.2946C47.0049 30.2946 47.2568 30.0931 47.2568 29.8446C47.2568 29.596 47.0049 29.3945 46.6942 29.3945C46.3836 29.3945 46.1317 29.596 46.1317 29.8446C46.1317 30.0931 46.3836 30.2946 46.6942 30.2946Z" fill="#111111"/>
<path d="M41.0529 30.2946C41.3636 30.2946 41.6154 30.0931 41.6154 29.8446C41.6154 29.596 41.3636 29.3945 41.0529 29.3945C40.7422 29.3945 40.4904 29.596 40.4904 29.8446C40.4904 30.0931 40.7422 30.2946 41.0529 30.2946Z" fill="#111111"/>
<path d="M67.0635 36.2684C67.9957 31.9289 66.8277 28.184 65.2205 24.7391C64.9419 24.7177 64.6633 24.6963 64.3794 24.6963C57.6129 24.6963 52.1322 30.1823 52.1322 36.9435C52.1322 39.5472 52.9519 41.958 54.3341 43.9403C61.1917 43.3456 65.9277 41.5723 67.0635 36.2684Z" fill="#FFAEAE"/>
<path d="M33.3971 43.9564C34.7901 41.9688 35.6097 39.5525 35.6097 36.9435C35.6097 30.177 30.1237 24.6963 23.3626 24.6963C22.8858 24.6963 22.4197 24.7284 21.9589 24.782C21.0321 27.2679 20.3517 29.8448 20.3517 32.2825C20.3463 40.7419 25.4574 43.2331 33.3971 43.9564Z" fill="#FFAEAE"/>
<path d="M67.0634 36.2684C68.7349 28.4679 63.6453 22.5961 61.3684 16.8958C58.4915 9.70072 50.4285 6.63625 43.137 6.64161C35.8937 6.64161 28.8915 9.49178 26.0467 15.7547C24.1448 19.9388 20.3463 26.5232 20.3463 32.2771C20.3463 43.6724 29.604 44.2456 42.5637 44.2403C55.5234 44.2349 65.3544 44.2403 67.0634 36.2684Z" stroke="#111111" stroke-width="1.17864" stroke-miterlimit="10"/>
<path d="M32.9844 17.319C34.2595 17.4154 35.5828 14.8064 36.8311 14.2278C39.8206 12.8455 42.3171 12.4169 41.7493 10.9276C41.2189 9.53462 38.2401 9.26139 34.0131 12.133C30.2361 14.6992 29.7753 17.0726 32.9844 17.319Z" fill="#FFE9E9"/>
<path d="M57.4896 7.1775C58.4004 5.1256 61.2023 5.30775 62.3381 6.44889C63.4739 7.59003 63.5864 10.1938 61.6095 11.2974C59.6969 12.3635 57.8968 13.1672 56.761 12.026C55.6252 10.8849 56.6003 9.19191 57.4896 7.1775Z" fill="#FFE048" stroke="#111111" stroke-width="1.17864" stroke-miterlimit="10" stroke-linecap="round" stroke-linejoin="round"/>
<path d="M57.5219 11.4149L59.9381 8.84863" stroke="#111111" stroke-width="1.17864" stroke-miterlimit="10" stroke-linecap="round" stroke-linejoin="round"/>
<path d="M58.1913 6.89873C59.0699 4.65931 57.1519 2.81099 55.6197 2.88599C54.0875 2.961 52.1641 4.91112 52.6409 7.17197C53.1017 9.36317 53.6803 11.2597 55.2125 11.1847C56.7448 11.1097 57.3287 9.10065 58.1913 6.89873Z" fill="#FFE048" stroke="#111111" stroke-width="1.17864" stroke-miterlimit="10" stroke-linecap="round" stroke-linejoin="round"/>
<path d="M55.0732 10.9064L55.4483 6.45972" stroke="#111111" stroke-width="1.17864" stroke-miterlimit="10" stroke-linecap="round" stroke-linejoin="round"/>
<path d="M61.5772 10.2849C63.8166 9.40625 65.6649 11.3242 65.5899 12.8565C65.5149 14.3887 63.5648 16.312 61.304 15.8352C59.1128 15.3745 57.2162 14.7959 57.2912 13.2636C57.3662 11.7314 59.3753 11.1474 61.5772 10.2849Z" fill="#FFE048" stroke="#111111" stroke-width="1.17864" stroke-miterlimit="10" stroke-linecap="round" stroke-linejoin="round"/>
<path d="M57.511 13.4024L62.0166 13.0273" stroke="#111111" stroke-width="1.17864" stroke-miterlimit="10" stroke-linecap="round" stroke-linejoin="round"/>
<path d="M58.4699 14.1426C59.1059 13.5066 58.7548 12.1243 57.6857 11.0551C56.6166 9.98603 55.2343 9.63495 54.5983 10.271C53.9623 10.907 54.3133 12.2893 55.3825 13.3584C56.4516 14.4275 57.8339 14.7786 58.4699 14.1426Z" fill="#FFF9E1" stroke="#111111" stroke-width="1.17864" stroke-miterlimit="10" stroke-linecap="round" stroke-linejoin="round"/>
<path d="M51.4088 10.574C50.0105 9.60434 50.1444 7.6703 50.9266 7.05955C51.7034 6.4488 53.4821 6.79703 54.2268 8.36141C54.9501 9.87758 55.4912 11.2652 54.709 11.8759C53.9268 12.4867 52.7803 11.5277 51.4088 10.574Z" fill="#FFE048" stroke="#111111" stroke-width="1.17864" stroke-miterlimit="10" stroke-linecap="round" stroke-linejoin="round"/>
<path d="M58.0199 17.3248C58.9896 18.7231 60.9237 18.5891 61.5344 17.8069C62.1452 17.0301 61.7969 15.2514 60.2326 14.5067C58.7164 13.7835 57.3288 13.2424 56.7181 14.0246C56.1073 14.8014 57.0663 15.9532 58.0199 17.3248Z" fill="#FFE048" stroke="#111111" stroke-width="1.17864" stroke-miterlimit="10" stroke-linecap="round" stroke-linejoin="round"/>
<path d="M52.1161 11.1901C52.7804 10.1293 54.2055 11.5437 55.7109 13.0491C57.2164 14.5546 58.545 15.8832 57.57 16.644C56.7556 17.2708 55.4806 16.2904 53.9751 14.785C52.4697 13.2742 51.4464 12.2562 52.1161 11.1901Z" fill="#FFE048" stroke="#111111" stroke-width="1.17864" stroke-miterlimit="10" stroke-linecap="round" stroke-linejoin="round"/>
<path d="M32.4595 66.9722L32.3684 66.8543C31.9827 66.3346 32.0898 65.5953 32.6095 65.2042L55.4216 48.2585L56.9163 50.2676L34.1043 67.2133C33.5846 67.6043 32.8453 67.4972 32.4595 66.9722Z" fill="white" stroke="#111111" stroke-width="1.17864" stroke-miterlimit="10"/>
<path d="M64.3414 50.2573C68.2893 47.325 69.9778 42.9125 68.1129 40.4017C66.248 37.8909 61.5358 38.2327 57.5879 41.1651C53.6401 44.0975 51.9515 48.51 53.8164 51.0207C55.6814 53.5315 60.3936 53.1897 64.3414 50.2573Z" fill="white" stroke="#111111" stroke-width="1.17864" stroke-miterlimit="10"/>
<path d="M16.8319 60.5698C16.8319 60.5698 12.1174 55.6463 11.4102 56.032C10.7084 56.4124 10.7084 57.8054 10.7084 57.8054C10.7084 57.8054 9.40114 56.6589 8.84396 56.7017C8.28678 56.7446 8.12606 61.0627 8.47965 64.3629C8.48501 64.3629 10.6012 59.9376 16.8319 60.5698Z" fill="#AD6360" stroke="#111111" stroke-width="1.17864" stroke-miterlimit="10"/>
<path d="M37.9832 59.7609C38.4171 59.8092 40.2547 60.2431 40.8333 61.695C41.428 63.1844 43.8549 60.9771 43.062 58.6894C42.9388 58.3305 42.9388 57.9394 43.1102 57.6072L43.1745 57.484C43.2013 57.4304 43.2281 57.3769 43.2495 57.3233C43.3995 56.9108 43.9353 55.2392 42.7192 55.0839C41.3262 54.9071 41.9691 55.3303 39.9011 54.6553L37.9832 59.7609Z" fill="#AD6360" stroke="#111111" stroke-width="1.17864" stroke-miterlimit="10"/>
<path d="M78.5222 68.8792C80.0119 64.1492 78.7418 59.5345 75.6854 58.5719C72.6291 57.6093 68.9437 60.6633 67.454 65.3932C65.9643 70.1232 67.2344 74.7379 70.2908 75.7005C73.3472 76.6631 77.0325 73.6091 78.5222 68.8792Z" fill="#F4CBCB" stroke="#111111" stroke-width="1.17864" stroke-miterlimit="10"/>
<path d="M70.519 60.5701C70.519 60.5701 75.2336 55.6465 75.9408 56.0323C76.6426 56.4127 76.6426 57.8056 76.6426 57.8056C76.6426 57.8056 77.9498 56.6591 78.507 56.702C79.0642 56.7448 79.2249 61.0629 78.8713 64.3631C78.8713 64.3631 76.7498 59.9379 70.519 60.5701Z" fill="#AD6360" stroke="#111111" stroke-width="1.17864" stroke-miterlimit="10"/>
</svg>
