<svg width="24" height="24" viewBox="0 0 24 24" fill="none" xmlns="http://www.w3.org/2000/svg">
<path d="M12 4.66666C13.5913 4.66666 15.1174 5.2988 16.2426 6.42402C17.3679 7.54923 18 9.07536 18 10.6667C18 13.1507 16.1067 15.7533 12.4 18.5333C12.2846 18.6199 12.1442 18.6667 12 18.6667C11.8558 18.6667 11.7154 18.6199 11.6 18.5333C7.89333 15.7533 6 13.1507 6 10.6667C6 9.07536 6.63214 7.54923 7.75736 6.42402C8.88258 5.2988 10.4087 4.66666 12 4.66666ZM12 8.66666C11.4696 8.66666 10.9609 8.87737 10.5858 9.25244C10.2107 9.62752 10 10.1362 10 10.6667C10 11.1971 10.2107 11.7058 10.5858 12.0809C10.9609 12.4559 11.4696 12.6667 12 12.6667C12.5304 12.6667 13.0391 12.4559 13.4142 12.0809C13.7893 11.7058 14 11.1971 14 10.6667C14 10.1362 13.7893 9.62752 13.4142 9.25244C13.0391 8.87737 12.5304 8.66666 12 8.66666Z" fill="white"/>
</svg>
