<svg width="88" height="88" viewBox="0 0 88 88" fill="none" xmlns="http://www.w3.org/2000/svg">
<path d="M56.8973 41.0788C59.4314 41.16 68.0799 42.714 69.5425 60.397C69.5476 60.4528 69.5476 60.5036 69.5476 60.5595C69.5374 61.0115 69.5374 63.4643 70.9543 64.2261C72.4067 65.0031 69.7761 67.2681 67.5315 66.1914C67.176 66.0239 66.7748 65.9781 66.4091 66.1254L66.272 66.1813C66.2111 66.2067 66.1552 66.2219 66.0943 66.2371C65.6474 66.3489 63.8445 66.7145 63.8598 65.4398C63.8801 63.9823 64.2203 64.6933 63.8242 62.4842C63.4281 60.2751 59.6498 57.4058 56.0543 53.6986C49.752 47.1982 52.408 43.1254 53.8858 41.8811C54.8456 41.0737 56.5012 41.0635 56.8973 41.0788Z" fill="white" stroke="#111111" stroke-width="1.11725" stroke-miterlimit="10"/>
<path d="M69.3648 61.0723C69.3547 61.5242 69.5324 63.4693 70.9493 64.226C72.4017 65.0029 69.7711 67.2679 67.5264 66.1913C67.171 66.0237 66.7698 65.978 66.4041 66.1253L66.267 66.1811C66.2061 66.2065 66.1502 66.2218 66.0893 66.237C65.6424 66.3487 63.8395 66.7144 63.8548 65.4397C63.8751 63.9822 64.2153 64.6932 63.8192 62.4841L69.3648 61.0723Z" fill="white" stroke="#111111" stroke-width="1.11725" stroke-miterlimit="10"/>
<path d="M29.9106 41.0793C27.3765 41.1605 18.728 42.7145 17.2654 60.3975C17.2604 60.4533 17.2604 60.5041 17.2604 60.56C17.2705 61.012 17.2705 63.4648 15.8536 64.2266C14.4012 65.0036 17.0318 67.2685 19.2765 66.1919C19.632 66.0243 20.0332 65.9786 20.3988 66.1259L20.5359 66.1818C20.5969 66.2072 20.6527 66.2224 20.7137 66.2376C21.1606 66.3494 22.9634 66.715 22.9482 65.4403C22.9279 63.9828 22.5876 64.6938 22.9837 62.4847C23.3798 60.2756 27.1582 57.4063 30.7537 53.6991C37.056 47.1987 34.4 43.1258 32.9221 41.8816C31.9623 41.0742 30.3068 41.064 29.9106 41.0793Z" fill="white" stroke="#111111" stroke-width="1.11725" stroke-miterlimit="10"/>
<path d="M17.4432 61.0723C17.4534 61.5242 17.2756 63.4693 15.8588 64.226C14.4063 65.0029 17.037 67.2679 19.2816 66.1913C19.6371 66.0237 20.0383 65.978 20.4039 66.1253L20.5411 66.1811C20.602 66.2065 20.6579 66.2218 20.7188 66.237C21.1657 66.3487 22.9685 66.7144 22.9533 65.4397C22.933 63.9822 22.5927 64.6932 22.9888 62.4841L17.4432 61.0723Z" fill="white" stroke="#111111" stroke-width="1.11725" stroke-miterlimit="10"/>
<path d="M66.4192 21.4661C66.1856 20.161 65.5915 18.8457 64.6215 17.6878C62.1128 14.6916 58.0856 13.9349 55.6276 15.9916C55.455 16.1389 55.2975 16.2913 55.1503 16.4588C55.7343 17.8402 56.4453 19.191 57.3441 20.2676C60.4826 24.0155 63.2655 23.5635 66.4192 21.4661Z" fill="#F2AAAA" stroke="#111111" stroke-width="1.11725" stroke-miterlimit="10"/>
<path d="M66.3888 21.456C66.4751 21.2224 66.211 20.5977 66.145 20.3997C65.8149 19.4094 65.2918 18.4851 64.6215 17.6878C62.1128 14.6916 58.0856 13.9349 55.6276 15.9916C55.455 16.1389 55.2975 16.2913 55.1503 16.4588C55.1503 16.6417 55.3585 16.9413 55.4347 17.1089C55.5312 17.3171 55.6378 17.5253 55.7292 17.7386C55.8511 18.0179 55.9171 18.3023 55.9882 18.5969C56.0695 18.9168 56.2066 19.191 56.3894 19.4653C56.623 19.8258 56.816 20.354 57.3187 20.1712C59.3857 19.4043 61.7928 19.6278 63.682 20.7653C64.0832 21.0091 64.4641 21.2884 64.8957 21.4712C65.3071 21.6439 65.7235 21.6845 66.1552 21.5728C66.2009 21.5626 66.3126 21.5576 66.3532 21.522C66.3685 21.4966 66.3786 21.4763 66.3888 21.456Z" fill="#9B8B80" stroke="#111111" stroke-width="1.11725" stroke-miterlimit="10"/>
<path d="M20.3937 21.4661C20.6273 20.161 21.2215 18.8457 22.1914 17.6878C24.7002 14.6916 28.7273 13.9349 31.1853 15.9916C31.3579 16.1389 31.5154 16.2913 31.6626 16.4588C31.0786 17.8402 30.3677 19.191 29.4688 20.2676C26.3252 24.0155 23.5423 23.5635 20.3937 21.4661Z" fill="#F2AAAA" stroke="#111111" stroke-width="1.11725" stroke-miterlimit="10"/>
<path d="M20.42 21.456C20.3337 21.2224 20.5977 20.5977 20.6638 20.3997C20.9939 19.4094 21.5169 18.4851 22.1873 17.6878C24.696 14.6916 28.7232 13.9349 31.1811 15.9916C31.3538 16.1389 31.5112 16.2913 31.6585 16.4588C31.6585 16.6417 31.4503 16.9413 31.3741 17.1089C31.2776 17.3171 31.171 17.5253 31.0796 17.7386C30.9577 18.0179 30.8917 18.3023 30.8206 18.5969C30.7393 18.9168 30.6022 19.191 30.4194 19.4653C30.1858 19.8258 29.9928 20.354 29.49 20.1712C27.4231 19.4043 25.0159 19.6278 23.1268 20.7653C22.7256 21.0091 22.3447 21.2884 21.913 21.4712C21.5017 21.6439 21.0853 21.6845 20.6536 21.5728C20.6079 21.5626 20.4962 21.5576 20.4555 21.522C20.4403 21.4966 20.4302 21.4763 20.42 21.456Z" fill="white" stroke="#111111" stroke-width="1.11725" stroke-miterlimit="10"/>
<path opacity="0.4" d="M10.2979 78.3391C11.3542 80.7259 14.645 81.0712 16.9252 80.9849C17.4787 80.9646 17.9409 80.7056 18.4842 80.6193C20.0636 80.3653 21.6633 80.2028 23.2579 80.0352C24.2482 79.9286 25.4264 79.8677 26.2694 80.4923C26.6402 80.7665 26.9093 81.1322 27.2902 81.4064C27.8082 81.7771 28.2906 82.1936 28.7883 82.5948C32.0385 85.1949 36.1164 86.6118 40.2198 87.018C40.7936 87.0739 41.3726 87.1247 41.9464 87.1704C43.3227 87.277 44.6939 87.3735 46.0752 87.4141C46.4459 87.4243 46.5779 87.3888 46.8979 87.272C47.421 87.0841 47.9745 86.952 48.5077 86.7844C49.5742 86.4391 50.6305 86.0582 51.6716 85.6367C53.7537 84.7988 55.7749 83.8237 57.72 82.7065C58.0704 82.5033 58.4157 82.3002 58.761 82.092C59.9646 81.3658 61.1428 80.5786 62.4581 80.086C63.5042 79.7001 64.6063 79.5071 65.7184 79.436C66.6884 79.37 67.8107 79.2684 68.7452 79.5883C69.5628 79.8727 70.1722 80.0149 71.066 79.9895C71.9192 79.9641 72.7723 79.9184 73.6255 79.8727C74.2146 79.8423 74.7173 79.9946 75.3166 79.8829C76.576 79.6442 77.7492 78.9586 78.5515 77.9582C79.1508 77.2167 79.5317 76.3128 79.6789 75.3733C79.7856 74.6775 79.9735 73.9158 79.9989 73.215C80.0395 72.0672 78.9578 71.0566 78.1453 70.4371C75.408 68.3448 71.8227 67.7557 68.603 66.7908C68.3541 66.7146 68.1053 66.6435 67.8564 66.5673C65.8352 65.9732 63.3316 65.1911 61.2444 65.8259C60.7467 65.9782 60.1982 65.9071 59.6853 65.9071C58.2227 65.9071 56.7652 65.9122 55.3026 65.9122C52.2607 65.9173 49.2136 65.9173 46.1717 65.9224C40.2046 65.9275 34.2374 65.9427 28.2703 65.9427C26.112 65.9427 23.9334 65.9478 21.8157 66.3744C19.0683 66.9279 16.4834 68.2178 14.3555 70.041C13.4769 70.7976 12.898 71.9758 11.8925 72.5802C11.7198 72.6868 11.5319 72.7325 11.3846 72.8696C10.9936 73.2302 10.7092 73.8701 10.4908 74.3474C10.0338 75.3631 9.8205 76.5159 10.0643 77.6128C10.115 77.8718 10.1963 78.1156 10.2979 78.3391Z" fill="#D1D1D1"/>
<path d="M65.6778 59.3761C65.4391 59.2339 65.1903 59.1069 64.9465 58.9851C64.1594 43.7905 54.8151 27.1841 43.3938 27.1892C31.9776 27.1943 22.6435 43.7956 21.8614 58.9851C21.6176 59.1019 21.3739 59.2288 21.1301 59.371C15.7876 62.5755 11.8874 66.2522 13.2941 70.5689C14.7009 74.8804 20.0179 74.4742 26.2237 73.9105C27.4273 73.7987 28.5192 73.4534 29.4892 72.9456C32.6987 73.7124 37.8279 74.398 43.2516 74.398C48.2081 74.398 53.6725 73.5398 56.9734 72.7475C58.0247 73.3671 59.2333 73.7835 60.5842 73.9054C66.79 74.4691 72.1071 74.8754 73.5138 70.5638C74.9205 66.2573 71.0203 62.5806 65.6778 59.3761Z" fill="white" stroke="#111111" stroke-width="1.11725" stroke-miterlimit="10"/>
<path d="M57.857 59.6152C57.4558 65.953 50.7015 68.8071 43.6679 68.8071C36.6344 68.8071 28.7578 64.9932 28.9 58.6503C29.1844 45.4667 35.7609 36.3967 42.7945 36.3967C49.828 36.3967 58.7254 45.9492 57.857 59.6152Z" fill="#9B8B80"/>
<path d="M18.3595 76.7014C21.2566 75.7889 22.4605 71.4146 21.0484 66.931C19.6363 62.4475 16.143 59.5525 13.2458 60.465C10.3486 61.3775 9.14473 65.7518 10.5568 70.2354C11.9689 74.7189 15.4623 77.6138 18.3595 76.7014Z" fill="white" stroke="#111111" stroke-width="1.11725" stroke-miterlimit="10"/>
<path d="M43.3176 26.8188C37.2743 26.8188 32.3737 33.6696 32.3737 42.115C32.3737 50.5654 37.2743 57.4111 43.3176 57.4111C49.3609 57.4111 54.2616 50.5604 54.2616 42.115C54.2616 33.6645 49.3609 26.8188 43.3176 26.8188ZM43.3176 51.5862C38.3408 51.5862 34.3035 46.7617 34.3035 40.8098C34.3035 34.8579 38.3408 30.0335 43.3176 30.0335C48.2944 30.0335 52.3318 34.8579 52.3318 40.8098C52.3318 46.7617 48.2944 51.5862 43.3176 51.5862Z" fill="#1F59AD" stroke="#111111" stroke-width="1.11725" stroke-miterlimit="10"/>
<path d="M63.682 39.3216C65.1446 31.9274 60.6959 26.3615 58.7001 20.9581C56.1812 14.1378 49.1375 11.238 42.759 11.238C36.4262 11.238 30.3067 13.9397 27.8183 19.8764C26.1577 23.8426 22.8364 30.084 22.8364 35.5382C22.8364 46.3399 30.9263 46.8833 42.2613 46.8782C53.5963 46.8782 62.1839 46.8833 63.682 39.3216Z" fill="white"/>
<path d="M58.7001 20.9581C57.2934 17.1442 54.3022 14.407 50.8438 12.8885C49.107 12.1217 47.2636 11.6443 45.3998 11.4107C44.8158 11.3396 43.9677 11.106 43.3735 11.3548C42.7082 11.6392 42.7184 12.7971 42.627 13.4268C42.4645 14.5136 42.3527 15.6055 42.2969 16.7024C42.2004 18.7287 42.3223 20.7753 42.7844 22.7457C43.6579 26.4681 45.9127 29.957 49.1883 31.4196C51.306 32.3642 53.7131 32.4099 55.9425 31.8309C58.0907 31.2723 60.1627 30.15 62.3718 30.2465C62.3159 30.2465 61.6761 28.1034 61.5846 27.885C61.4221 27.4838 61.2393 27.0877 61.0514 26.7018C60.8991 26.392 60.6147 26.0466 60.6248 25.6962C60.6299 25.5743 60.6959 25.5083 60.6756 25.3712C60.6451 25.163 60.4522 24.904 60.3607 24.7161C60.1576 24.2946 59.9545 23.8731 59.7615 23.4465C59.3755 22.639 59.015 21.8113 58.7001 20.9581Z" fill="#9B8B80"/>
<path d="M50.7017 28.723C51.372 29.8859 52.5451 30.4649 53.3221 30.018C54.0991 29.5711 54.5663 28.2456 54.0432 27.0116C53.378 25.4474 51.6666 25.3611 50.8946 25.8131C50.1126 26.26 50.0262 27.5651 50.7017 28.723Z" fill="#111111"/>
<path d="M51.9712 27.6162C52.1255 27.6162 52.2505 27.4912 52.2505 27.3369C52.2505 27.1827 52.1255 27.0576 51.9712 27.0576C51.8169 27.0576 51.6919 27.1827 51.6919 27.3369C51.6919 27.4912 51.8169 27.6162 51.9712 27.6162Z" fill="white"/>
<path d="M36.1469 28.6215C35.5528 29.825 34.4203 30.4751 33.6179 30.079C32.8155 29.6828 32.201 28.3675 32.7089 27.1233C33.3894 25.4475 34.9738 25.3256 35.7762 25.7217C36.5735 26.1178 36.7411 27.4179 36.1469 28.6215Z" fill="#111111"/>
<path d="M33.9631 27.6162C34.1174 27.6162 34.2425 27.4912 34.2425 27.3369C34.2425 27.1827 34.1174 27.0576 33.9631 27.0576C33.8089 27.0576 33.6838 27.1827 33.6838 27.3369C33.6838 27.4912 33.8089 27.6162 33.9631 27.6162Z" fill="white"/>
<path d="M63.682 39.3216C65.1446 31.9274 60.6959 26.3615 58.7001 20.9581C56.1812 14.1378 49.1375 11.238 42.759 11.238C36.4262 11.238 30.3067 13.9397 27.8183 19.8764C26.1577 23.8426 22.8364 30.084 22.8364 35.5382C22.8364 46.3399 30.9263 46.8833 42.2613 46.8782C53.5963 46.8782 62.1839 46.8833 63.682 39.3216Z" stroke="#111111" stroke-width="1.11725" stroke-miterlimit="10"/>
<path d="M17.7733 62.3572C17.7733 62.3572 13.3043 57.6902 12.634 58.0558C11.9687 58.4164 11.9687 59.7368 11.9687 59.7368C11.9687 59.7368 10.7296 58.65 10.2014 58.6906C9.67835 58.7363 9.52092 62.8244 9.85609 65.9527C9.86117 65.9527 11.8671 61.763 17.7733 62.3572Z" fill="#4F4741" stroke="#111111" stroke-width="1.11725" stroke-miterlimit="10"/>
<path d="M76.2485 70.2343C77.6606 65.7507 76.4567 61.3764 73.5595 60.4639C70.6624 59.5515 67.169 62.4464 65.7569 66.9299C64.3448 71.4135 65.5487 75.7878 68.4459 76.7003C71.3431 77.6127 74.8364 74.7178 76.2485 70.2343Z" fill="white" stroke="#111111" stroke-width="1.11725" stroke-miterlimit="10"/>
<path d="M68.6639 62.3572C68.6639 62.3572 73.1329 57.6902 73.8033 58.0558C74.4686 58.4164 74.4686 59.7368 74.4686 59.7368C74.4686 59.7368 75.7077 58.65 76.2358 58.6906C76.7589 58.7363 76.9163 62.8244 76.5812 65.9527C76.5812 65.9527 74.5701 61.763 68.6639 62.3572Z" fill="#4F4741" stroke="#111111" stroke-width="1.11725" stroke-miterlimit="10"/>
<path d="M49.9194 45.0148H36.1875C32.5869 45.0148 29.6719 42.0947 29.6719 38.4992C29.6719 34.8986 32.592 31.9836 36.1875 31.9836H49.9194C53.52 31.9836 56.435 34.9037 56.435 38.4992C56.435 42.0947 53.52 45.0148 49.9194 45.0148Z" fill="#82756F" stroke="#111111" stroke-width="1.11725" stroke-miterlimit="10"/>
<path d="M48.6957 38.4938C48.6957 39.347 48.005 40.0325 47.1569 40.0325C46.3038 40.0325 45.1104 40.0529 45.1104 39.1997C45.1104 38.3465 46.3089 36.95 47.1569 36.95C48.005 36.955 48.6957 37.6457 48.6957 38.4938Z" fill="#111111"/>
<path d="M40.8902 39.2051C40.8902 40.0583 39.7983 40.038 38.9503 40.038C38.1022 40.038 37.4115 39.3473 37.4115 38.4992C37.4115 37.6511 38.1022 36.9604 38.9503 36.9604C39.7983 36.9604 40.8902 38.3519 40.8902 39.2051Z" fill="#111111"/>
<path d="M49.5639 12.0456C49.5639 12.0456 56.76 9.57753 59.8325 4.33155C62.9049 -0.914436 63.7428 4.33155 63.7428 4.33155C63.7428 4.33155 63.9917 12.0558 60.5841 16.3674C57.1815 20.6789 52.1946 17.5455 52.1946 17.5455C52.1946 17.5455 49.437 16.1896 49.5639 12.0456Z" fill="#4F4741" stroke="#111111" stroke-width="1.11725" stroke-miterlimit="10"/>
<path d="M37.244 12.0456C37.244 12.0456 30.0479 9.57753 26.9754 4.33155C23.903 -0.914436 23.0651 4.33155 23.0651 4.33155C23.0651 4.33155 22.8162 12.0558 26.2238 16.3674C29.6314 20.6789 34.6134 17.5455 34.6134 17.5455C34.6134 17.5455 37.3709 16.1896 37.244 12.0456Z" fill="#4F4741" stroke="#111111" stroke-width="1.11725" stroke-miterlimit="10"/>
<path d="M40.687 58.9597C40.687 58.9597 36.4465 76.1907 38.7521 78.1358C41.0577 80.0808 44.6532 80.4515 46.9588 82.2035C49.2644 83.9556 52.5857 80.7257 55.1655 80.2687C57.7453 79.8116 57.2883 77.2369 55.1655 77.2318C53.0427 77.2267 50.4629 77.2267 48.6144 75.5661C46.7658 73.9054 45.2728 70.5791 45.6079 58.0405H40.9612L40.687 58.9597Z" fill="#1F83FC" stroke="#111111" stroke-width="1.11725" stroke-miterlimit="10"/>
<path d="M40.8902 50.5198C40.8902 50.5198 39.5698 55.6642 39.4835 56.4463C39.3971 57.2283 39.7425 58.9601 41.6113 58.9601C43.4802 58.9601 46.6694 58.7214 46.903 58.5436C48.3148 57.4619 46.903 55.5677 45.9026 50.5198C45.5979 48.9861 40.8902 50.5198 40.8902 50.5198Z" fill="#1D8EFF" stroke="#111111" stroke-width="1.11725" stroke-miterlimit="10"/>
</svg>
