<svg width="24" height="24" viewBox="0 0 24 24" fill="none" xmlns="http://www.w3.org/2000/svg">
<path d="M12 5.58337C13.3924 5.58337 14.7277 6.1365 15.7123 7.12106C16.6969 8.10563 17.25 9.44099 17.25 10.8334C17.25 13.0069 15.5933 15.2842 12.35 17.7167C12.249 17.7924 12.1262 17.8334 12 17.8334C11.8738 17.8334 11.751 17.7924 11.65 17.7167C8.40667 15.2842 6.75 13.0069 6.75 10.8334C6.75 9.44099 7.30312 8.10563 8.28769 7.12106C9.27226 6.1365 10.6076 5.58337 12 5.58337ZM12 9.08337C11.5359 9.08337 11.0908 9.26775 10.7626 9.59594C10.4344 9.92413 10.25 10.3692 10.25 10.8334C10.25 11.2975 10.4344 11.7426 10.7626 12.0708C11.0908 12.399 11.5359 12.5834 12 12.5834C12.4641 12.5834 12.9092 12.399 13.2374 12.0708C13.5656 11.7426 13.75 11.2975 13.75 10.8334C13.75 10.3692 13.5656 9.92413 13.2374 9.59594C12.9092 9.26775 12.4641 9.08337 12 9.08337Z" fill="#9E9B9F"/>
</svg>
