<svg width="88" height="88" viewBox="0 0 88 88" fill="none" xmlns="http://www.w3.org/2000/svg">
<path d="M45.1931 58.756C45.1931 58.756 76.3241 57.4888 74.5037 40.1535C72.6179 22.2293 80.5598 13.2285 83.6651 14.6205C86.7705 16.0126 85.9852 17.595 84.5991 21.9021C83.213 26.2091 82.4099 27.738 82.3266 33.1932C82.2671 37.2742 83.9209 43.6932 80.4646 52.456C77.8887 58.982 70.4406 66.6859 61.2375 67.1321C52.0404 67.5723 45.1931 58.756 45.1931 58.756Z" fill="#776C65" stroke="#111111" stroke-width="1.30877" stroke-miterlimit="10"/>
<path d="M59.8694 39.4631C62.838 39.5583 72.9691 41.3786 74.6824 62.093C74.6883 62.1584 74.6883 62.2179 74.6883 62.2833C74.6764 62.8128 74.6764 65.6862 76.3362 66.5785C78.0376 67.4887 74.956 70.1419 72.3266 68.8808C71.9102 68.6844 71.4402 68.6309 71.0119 68.8034L70.8512 68.8689C70.7798 68.8986 70.7144 68.9165 70.643 68.9343C70.1195 69.0652 68.0076 69.4935 68.0255 68.0003C68.0493 66.293 68.4479 67.1258 67.9838 64.538C67.5198 61.9502 63.0938 58.589 58.8819 54.2463C51.4992 46.6316 54.6105 41.8605 56.3417 40.403C57.466 39.4571 59.4054 39.4452 59.8694 39.4631Z" fill="#B2A59D" stroke="#111111" stroke-width="1.30877" stroke-miterlimit="10"/>
<path d="M74.4741 62.884C74.4622 63.4135 74.6704 65.6919 76.3301 66.5783C78.0316 67.4885 74.95 70.1418 72.3205 68.8806C71.9041 68.6843 71.4341 68.6307 71.0058 68.8033L70.8452 68.8687C70.7738 68.8984 70.7084 68.9163 70.637 68.9341C70.1135 69.065 68.0016 69.4933 68.0194 68.0002C68.0432 66.2928 68.4418 67.1257 67.9778 64.5378L74.4741 62.884Z" fill="#B2A59D" stroke="#111111" stroke-width="1.30877" stroke-miterlimit="10"/>
<path d="M28.2566 39.4631C25.288 39.5583 15.1569 41.3786 13.4436 62.093C13.4377 62.1584 13.4377 62.2179 13.4377 62.2833C13.4496 62.8128 13.4496 65.6862 11.7898 66.5785C10.0884 67.4887 13.17 70.1419 15.7994 68.8808C16.2158 68.6844 16.6858 68.6309 17.1141 68.8034L17.2747 68.8689C17.3461 68.8986 17.4116 68.9165 17.483 68.9343C18.0065 69.0652 20.1184 69.4935 20.1005 68.0003C20.0767 66.293 19.6781 67.1258 20.1422 64.538C20.6062 61.9502 25.0322 58.589 29.2441 54.2463C36.6268 46.6316 33.5155 41.8605 31.7843 40.403C30.6599 39.4571 28.7206 39.4452 28.2566 39.4631Z" fill="#B2A59D" stroke="#111111" stroke-width="1.30877" stroke-miterlimit="10"/>
<path d="M13.6517 62.884C13.6636 63.4135 13.4554 65.6919 11.7957 66.5783C10.0942 67.4885 13.1758 70.1418 15.8053 68.8806C16.2217 68.6843 16.6917 68.6307 17.12 68.8033L17.2806 68.8687C17.352 68.8984 17.4174 68.9163 17.4888 68.9341C18.0123 69.065 20.1242 69.4933 20.1064 68.0002C20.0826 66.2928 19.684 67.1257 20.148 64.5378L13.6517 62.884Z" fill="#B2A59D" stroke="#111111" stroke-width="1.30877" stroke-miterlimit="10"/>
<path d="M47.9833 5.57788C47.9833 5.57788 60.1965 1.60397 67.7041 2.03229C75.2117 2.46062 76.0208 4.23936 75.4318 7.17221C74.8429 10.1051 72.7013 12.907 69.9112 21.9495C67.1211 30.9919 59.0186 25.2095 59.0186 25.2095L47.9833 5.57788Z" fill="#B2A59D" stroke="#111111" stroke-width="1.30877" stroke-miterlimit="10"/>
<path d="M47.198 9.52805C47.198 9.52805 56.6807 6.44054 62.5047 6.77368C68.3288 7.10682 68.9593 8.48698 68.5013 10.7654C68.0432 13.0439 66.3834 15.2153 64.2121 22.2351C62.0466 29.2549 55.7586 24.7634 55.7586 24.7634L47.198 9.52805Z" fill="#776C65" stroke="#111111" stroke-width="1.30877" stroke-miterlimit="10"/>
<path d="M38.9527 5.57813C38.9527 5.57813 26.7395 1.60421 19.2319 2.03254C11.7243 2.46086 10.9212 4.24556 11.5101 7.17245C12.0991 10.0993 14.2407 12.9073 17.0308 21.9497C19.8208 30.9921 27.9233 25.2097 27.9233 25.2097L38.9527 5.57813Z" fill="#B2A59D" stroke="#111111" stroke-width="1.30877" stroke-miterlimit="10"/>
<path d="M39.744 9.52805C39.744 9.52805 30.2613 6.44054 24.4373 6.77368C18.6132 7.10682 17.9827 8.48698 18.4348 10.7654C18.8928 13.0379 20.5526 15.2153 22.724 22.2351C24.8954 29.2549 31.1775 24.7634 31.1775 24.7634L39.744 9.52805Z" fill="#776C65" stroke="#111111" stroke-width="1.30877" stroke-miterlimit="10"/>
<path opacity="0.4" d="M4.68666 83.1347C6.08467 86.2936 10.7487 86.2936 13.7291 86.2163C14.5144 86.1925 15.2699 86.2579 16.0492 86.1449C16.2693 86.1152 16.4894 86.0854 16.7095 86.0735C17.0129 86.0557 17.3163 86.0676 17.6197 86.0854C18.4704 86.133 19.2914 86.0735 20.1362 85.9962C22.2421 85.7999 24.4075 85.4251 26.5254 85.4965C28.3517 85.556 30.1364 85.2466 31.9627 85.2228C37.3644 85.1574 42.7601 85.0919 48.1618 85.0206C53.5634 84.9551 58.9592 84.8897 64.3608 84.8183C65.3603 84.8064 66.3597 84.8064 67.3591 84.7826C67.7042 84.7766 67.9243 84.6934 68.2396 84.5922C68.6679 84.4554 69.1498 84.4495 69.6019 84.4197C70.7381 84.3424 72.0529 84.2234 73.1475 84.5982C74.1053 84.9313 74.8191 85.0979 75.8662 85.0681C76.8656 85.0384 77.865 84.9849 78.8644 84.9313C79.5545 84.8956 80.1435 85.0741 80.8455 84.9432C82.3208 84.6636 83.695 83.8605 84.635 82.6886C85.3369 81.82 85.7831 80.7611 85.9556 79.6605C86.0806 78.8455 86.3007 77.9532 86.3304 77.1322C86.378 75.7877 85.1109 74.6039 84.159 73.8781C80.9525 71.4271 76.7526 70.7371 72.9809 69.6068C72.6894 69.5175 72.3979 69.4342 72.1064 69.345C69.7387 68.649 66.8059 67.7328 64.3608 68.4765C63.7778 68.6549 63.1353 68.5716 62.5345 68.5716C60.8212 68.5716 59.1138 68.5776 57.4005 68.5776C53.8371 68.5835 50.2677 68.5835 46.7043 68.5895C39.7142 68.5954 32.7242 68.6133 25.7341 68.6133C23.2058 68.6133 20.6537 68.6192 18.173 69.1189C14.9546 69.7674 11.9266 71.2784 9.43395 73.4141C8.40477 74.3005 7.72659 75.6807 6.54869 76.3886C6.34643 76.5135 6.12632 76.5671 5.9538 76.7277C5.49573 77.1501 5.16258 77.8996 4.90678 78.4588C4.37137 79.6486 4.12151 80.9991 4.40706 82.284C4.4725 82.5815 4.56769 82.867 4.68666 83.1347Z" fill="#D1D1D1"/>
<path d="M69.5602 60.9153C69.2806 60.7487 68.9891 60.6 68.7035 60.4572C67.7815 42.6579 56.8353 23.2047 43.4561 23.2107C30.0828 23.2166 19.1486 42.6638 18.2325 60.4572C17.9469 60.5941 17.6614 60.7428 17.3758 60.9094C11.1175 64.6632 6.54867 68.9702 8.19653 74.0268C9.8444 79.0775 16.073 78.6016 23.3426 77.9413C24.7525 77.8104 26.0316 77.4059 27.1678 76.811C30.9276 77.7093 36.936 78.5124 43.2895 78.5124C49.0957 78.5124 55.4968 77.507 59.3637 76.5789C60.5951 77.3047 62.011 77.7925 63.5934 77.9353C70.863 78.5957 77.0916 79.0716 78.7395 74.0209C80.3873 68.9821 75.8245 64.6691 69.5602 60.9153Z" fill="#F7F5F5" stroke="#111111" stroke-width="1.30877" stroke-miterlimit="10"/>
<path opacity="0.6" d="M60.3987 61.1947C59.9288 68.619 52.0166 71.9624 43.7773 71.9624C35.538 71.9624 26.3111 67.4947 26.4777 60.0644C26.8168 44.6268 34.5207 34.002 42.76 34.002C50.9994 34.002 61.416 45.186 60.3987 61.1947Z" fill="white"/>
<path d="M14.1354 81.2091C17.5292 80.1402 18.9395 75.0159 17.2853 69.7638C15.6311 64.5117 11.5389 61.1205 8.14509 62.1894C4.75125 63.2582 3.34097 68.3825 4.99513 73.6346C6.6493 78.8867 10.7415 82.2779 14.1354 81.2091Z" fill="#776C65" stroke="#111111" stroke-width="1.30877" stroke-miterlimit="10"/>
<path d="M69.221 37.423C71.0771 28.7613 65.4256 22.2412 62.8973 15.9115C59.7027 7.92796 50.7495 4.52515 42.6529 4.52515C34.6099 4.52515 26.8346 7.69 23.6757 14.6444C21.5638 19.2905 17.3519 26.6018 17.3519 32.991C17.3519 45.6445 27.6318 46.281 42.0223 46.275C56.4129 46.275 67.3233 46.281 69.221 37.423Z" fill="#F7F5F5" stroke="#111111" stroke-width="1.30877" stroke-miterlimit="10"/>
<path d="M69.221 37.423C71.0771 28.7613 65.4256 22.2412 62.8973 15.9115C59.7027 7.92796 50.7495 4.52515 42.6529 4.52515C34.6099 4.52515 26.8346 7.69 23.6757 14.6444C21.5638 19.2905 17.3519 26.6018 17.3519 32.991C17.3519 45.6445 27.6318 46.281 42.0223 46.275C56.4129 46.275 67.3233 46.281 69.221 37.423Z" stroke="#111111" stroke-width="1.30877" stroke-miterlimit="10"/>
<path d="M81.9423 73.6371C83.5965 68.3849 82.1862 63.2607 78.7923 62.1918C75.3985 61.1229 71.3063 64.5141 69.6521 69.7663C67.9979 75.0184 69.4082 80.1426 72.8021 81.2115C76.1959 82.2804 80.2881 78.8892 81.9423 73.6371Z" fill="#776C65" stroke="#111111" stroke-width="1.30877" stroke-miterlimit="10"/>
<path d="M60.7618 28.904C60.7618 38.4581 52.5522 42.5153 43.0041 42.5153C33.456 42.5153 26.1744 38.4581 26.1744 28.904C26.1744 19.35 33.92 11.6104 43.4681 11.6104C53.0162 11.6104 60.7618 19.3559 60.7618 28.904Z" fill="#B2A59D"/>
<path d="M55.128 24.335C55.128 23.9781 55.1161 23.6211 55.1221 23.2642C55.128 23.1214 55.1459 22.9786 55.134 22.8359C55.128 22.7407 55.0923 22.6574 55.0745 22.5682C55.0209 22.3064 54.9317 22.0684 54.7294 21.8781C54.4677 21.6342 54.1345 21.5628 53.7895 21.5925C53.1232 21.6461 52.4569 21.6818 51.7906 21.6877C51.4575 21.6937 51.1244 21.6877 50.7912 21.6758C50.6246 21.6699 50.4581 21.6639 50.2915 21.658C50.1309 21.652 49.9584 21.6104 49.8037 21.652C48.7329 21.9554 48.9054 23.5557 48.9054 24.341C48.9054 26.7265 50.2974 28.6599 52.0167 28.6599C53.736 28.654 55.128 26.7205 55.128 24.335Z" fill="#111111"/>
<path d="M50.8625 25.4414C51.2042 25.4414 51.4812 24.9513 51.4812 24.3468C51.4812 23.7423 51.2042 23.2522 50.8625 23.2522C50.5208 23.2522 50.2438 23.7423 50.2438 24.3468C50.2438 24.9513 50.5208 25.4414 50.8625 25.4414Z" fill="white"/>
<path d="M37.2216 24.3766C37.2216 24.3409 37.2216 24.3112 37.2216 24.2755C37.2216 23.7222 37.2513 23.169 37.2037 22.6157C37.1859 22.4253 37.174 22.1755 37.0669 22.0089C36.9301 21.7947 36.6862 21.6698 36.4423 21.6222C36.1805 21.5687 35.9069 21.5984 35.6332 21.6163C34.5207 21.7055 33.4023 21.6817 32.2958 21.5568C32.0519 21.527 31.7545 21.5032 31.5403 21.6579C31.344 21.8007 31.225 22.0684 31.1596 22.2885C30.9514 22.9488 30.9989 23.6925 30.9989 24.3766C30.9989 26.7621 32.391 28.6955 34.1103 28.6955C35.8295 28.6955 37.2216 26.7621 37.2216 24.3766Z" fill="#111111"/>
<path d="M33.0037 25.4058C33.3454 25.4058 33.6224 24.9157 33.6224 24.3112C33.6224 23.7066 33.3454 23.2166 33.0037 23.2166C32.662 23.2166 32.385 23.7066 32.385 24.3112C32.385 24.9157 32.662 25.4058 33.0037 25.4058Z" fill="white"/>
<path d="M59.804 30.7244L64.9558 30.0283" stroke="#111111" stroke-width="1.30877" stroke-miterlimit="10" stroke-linecap="round" stroke-linejoin="round"/>
<path d="M60.161 33.449L64.7179 33.8178" stroke="#111111" stroke-width="1.30877" stroke-miterlimit="10" stroke-linecap="round" stroke-linejoin="round"/>
<path d="M28.072 30.7244L22.9202 30.0283" stroke="#111111" stroke-width="1.30877" stroke-miterlimit="10" stroke-linecap="round" stroke-linejoin="round"/>
<path d="M27.7212 33.449L23.1583 33.8178" stroke="#111111" stroke-width="1.30877" stroke-miterlimit="10" stroke-linecap="round" stroke-linejoin="round"/>
<path d="M50.1784 51.9858C48.2271 51.0518 45.6512 51.1232 43.7654 55.0734C43.6345 55.3411 43.5274 55.6207 43.4263 55.9062C43.3252 55.6207 43.2181 55.3411 43.0872 55.0734C41.2014 51.1173 38.6255 51.0518 36.6742 51.9858C34.723 52.9198 33.6581 55.7515 35.5439 59.7017C37.2334 63.2413 42.3614 65.728 43.3252 66.2098C43.3371 66.2634 43.5215 66.2634 43.5334 66.2098C44.4971 65.722 49.1492 63.2353 50.8387 59.7017C52.7246 55.7456 52.1356 52.9139 50.1784 51.9858Z" fill="#FF8A8A" stroke="#111111" stroke-width="1.30877" stroke-miterlimit="10" stroke-linejoin="round"/>
<path d="M43.0575 29.7427C43.0575 29.7427 41.5822 33.3716 37.6499 30.8194" stroke="#111111" stroke-width="1.30877" stroke-miterlimit="10" stroke-linecap="round" stroke-linejoin="round"/>
<path d="M43.0575 29.7424C43.0575 29.7424 44.5328 33.3713 48.4651 30.8192" stroke="#111111" stroke-width="1.30877" stroke-miterlimit="10" stroke-linecap="round" stroke-linejoin="round"/>
<path d="M43.1647 29.4451C43.587 29.4332 44.0035 29.2548 44.2831 28.9335C44.5151 28.6658 44.7947 28.0947 44.3188 27.9103C44.1938 27.8627 44.057 27.8627 43.9261 27.8746C43.6882 27.8865 43.4502 27.9163 43.2123 27.9519C43.0754 27.9757 42.9327 27.9579 42.7958 27.9519C42.7006 27.946 42.6055 27.9757 42.5103 27.9579C42.2604 27.9103 41.9987 27.7497 41.7488 27.8984C41.606 27.9876 41.5347 28.1661 41.5525 28.3327C41.5822 28.5825 41.7667 28.7075 41.9035 28.8859C42.189 29.2548 42.6888 29.457 43.1647 29.4451Z" fill="#111111"/>
</svg>
