<svg width="24" height="24" viewBox="0 0 24 24" fill="none" xmlns="http://www.w3.org/2000/svg">
<path d="M14.4203 5.79903L9.86224 4.2037C9.47936 4.06696 9.06002 4.06696 8.67714 4.19459L5.03979 5.41615C4.30138 5.67141 3.79999 6.36424 3.79999 7.14823V17.9509C3.79999 19.2363 5.08537 20.1114 6.27959 19.6465L8.95063 18.6073C9.15118 18.5252 9.37909 18.5252 9.57964 18.5981L14.1377 20.1935C14.5206 20.3302 14.94 20.3302 15.3228 20.2026L18.9602 18.981C19.6986 18.7349 20.2 18.0329 20.2 17.2489V6.44628C20.2 5.1609 18.9146 4.28575 17.7204 4.75067L15.0493 5.78992C14.8488 5.86285 14.63 5.87196 14.4203 5.79903ZM14.7394 18.4796L9.26969 16.5561V5.91754L14.7394 7.84106V18.4796Z" fill="white"/>
</svg>
