<svg width="88" height="88" viewBox="0 0 88 88" fill="none" xmlns="http://www.w3.org/2000/svg">
<path d="M76.4829 17.3301C76.4829 23.6792 71.5998 29.4767 65.2507 29.4767C58.9016 29.4767 54.4016 28.7003 51.9702 22.8364C47.8533 12.9169 60.199 5.80674 66.2723 5.98041C72.6163 6.16429 76.4829 10.981 76.4829 17.3301Z" fill="#FFB061" stroke="#111111" stroke-width="1.12373" stroke-miterlimit="10"/>
<path d="M55.8574 22.111C59.4176 10.9145 67.2889 10.179 71.8859 11.2006C75.3184 11.9616 76.483 12.9015 76.483 17.33C76.483 23.6791 71.5999 29.4766 65.2508 29.4766H62.1861L55.8574 22.111Z" fill="#CC7627" stroke="#111111" stroke-width="0.510788" stroke-miterlimit="10"/>
<path d="M55.8574 22.1111C58.7229 11.6859 67.2889 10.1791 71.8859 11.2007C75.3184 11.9618 76.483 12.9016 76.483 17.3301C76.483 23.6792 71.5999 29.4767 65.2508 29.4767H62.1861L55.8574 22.1111Z" stroke="#111111" stroke-width="1.12373" stroke-miterlimit="10"/>
<path d="M10.2389 17.3306C10.2389 23.6797 15.122 29.4771 21.4711 29.4771C27.8202 29.4771 32.3203 28.7007 34.7516 22.8369C38.8686 12.9174 26.5228 5.80723 20.4495 5.9809C14.1056 6.16478 10.2389 10.9815 10.2389 17.3306Z" fill="#FFB061" stroke="#111111" stroke-width="1.12373" stroke-miterlimit="10"/>
<path d="M30.8645 22.111C27.2992 10.9145 19.4331 10.179 14.836 11.2006C11.4035 11.9616 10.2389 12.9015 10.2389 17.33C10.2389 23.6791 15.122 29.4766 21.4711 29.4766H24.5358L30.8645 22.111Z" fill="#CC7627" stroke="#111111" stroke-width="0.510788" stroke-miterlimit="10"/>
<path d="M30.8645 22.1111C27.999 11.6859 19.4331 10.1791 14.836 11.2007C11.4035 11.9618 10.2389 12.9016 10.2389 17.3301C10.2389 23.6792 15.122 29.4767 21.4711 29.4767H24.5358L30.8645 22.1111Z" stroke="#111111" stroke-width="1.12373" stroke-miterlimit="10"/>
<path opacity="0.4" d="M10.0602 77.4602C11.0562 79.7127 13.7583 79.9426 15.8883 80.1112C16.3224 80.1469 16.7515 80.295 17.1857 80.2899C17.8395 80.2848 18.5188 80.0499 19.1675 79.963C19.8826 79.866 20.6079 79.8098 21.3282 79.7945C23.7493 79.7485 26.2777 80.2542 28.3413 81.5669C29.2147 82.1237 29.889 82.992 30.8339 83.4262C31.8249 83.8808 32.8566 84.3098 33.8731 84.7083C35.8856 85.4898 38.0105 85.975 40.1558 86.1844C40.733 86.2406 41.3153 86.2917 41.8925 86.3377C43.2767 86.4449 44.6558 86.542 46.0452 86.5828C46.4181 86.5931 46.5509 86.5573 46.8727 86.4398C47.3988 86.2508 47.9555 86.118 48.4919 85.9495C49.5645 85.6021 50.627 85.219 51.6741 84.7951C53.7683 83.9523 55.8012 82.9716 57.7576 81.8478C58.11 81.6435 58.4573 81.4392 58.8047 81.2298C60.0152 80.4994 61.2003 79.7076 62.5232 79.2122C63.5754 78.824 64.6838 78.6299 65.8025 78.5584C66.7781 78.492 67.9069 78.3898 68.8468 78.7116C69.6691 78.9976 70.2821 79.1407 71.1811 79.1151C72.8616 79.064 74.5676 79.2479 76.1153 78.4613C77.4535 77.7871 78.5517 76.6072 79.0421 75.1769C79.4967 73.8438 79.3996 72.3523 78.8633 71.06C78.5977 70.4215 78.2248 69.829 77.7549 69.3233C76.4115 67.8727 74.256 67.5049 72.4274 66.9584C71.1862 66.5855 69.9399 66.2126 68.6986 65.8397C68.4484 65.7631 68.1981 65.6916 67.9478 65.615C65.9148 65.0174 63.3967 64.2308 61.2973 64.8692C60.7968 65.0225 60.2451 64.951 59.7292 64.951C58.2581 64.951 56.7922 64.9561 55.3211 64.9561C52.2615 64.9612 49.1968 64.9612 46.1371 64.9663C40.1354 64.9714 34.1336 64.9867 28.1319 64.9867C25.961 64.9867 23.7697 64.9918 21.6397 65.4209C18.8764 65.9777 16.2765 67.2751 14.1363 69.1088C13.2526 69.8699 12.6703 71.0549 11.6589 71.6627C11.4853 71.77 11.2963 71.816 11.1482 71.9539C10.7548 72.3165 10.4688 72.9601 10.2492 73.4403C9.78946 74.4618 9.57493 75.6213 9.8201 76.7246C9.8814 76.9851 9.95802 77.2303 10.0602 77.4602Z" fill="#D1D1D1"/>
<path d="M29.7428 82.025C30.1211 81.6905 29.9914 80.9259 29.4532 80.3173C28.9149 79.7087 28.1719 79.4865 27.7937 79.821C27.4154 80.1556 27.5451 80.9201 28.0833 81.5287C28.6216 82.1373 29.3646 82.3595 29.7428 82.025Z" fill="#685649" stroke="#111111" stroke-width="1.12373" stroke-miterlimit="10"/>
<path d="M24.0608 77.2559C24.8732 77.2559 25.5319 76.8465 25.5319 76.3416C25.5319 75.8366 24.8732 75.4272 24.0608 75.4272C23.2483 75.4272 22.5897 75.8366 22.5897 76.3416C22.5897 76.8465 23.2483 77.2559 24.0608 77.2559Z" fill="#685649" stroke="#111111" stroke-width="1.12373" stroke-miterlimit="10"/>
<path d="M65.7617 58.382C65.5216 58.239 65.2713 58.1113 65.0261 57.9887C64.2344 42.706 54.8359 26.0032 43.3483 26.0083C31.8658 26.0134 22.4775 42.7111 21.6909 57.9887C21.4457 58.1062 21.2005 58.2339 20.9554 58.3769C15.5819 61.6 11.659 65.2981 13.0739 69.6398C14.4888 73.9764 19.8367 73.5678 26.0786 73.0008C27.2891 72.8884 28.3873 72.5411 29.3629 72.0303C32.5911 72.8016 37.7501 73.4911 43.2053 73.4911C48.1906 73.4911 53.6866 72.6279 57.0068 71.8311C58.0641 72.4542 59.2798 72.8731 60.6385 72.9957C66.8803 73.5627 72.2283 73.9713 73.6431 69.6347C75.058 65.3083 71.1403 61.6051 65.7617 58.382Z" fill="#D18E56" stroke="#111111" stroke-width="1.12373" stroke-miterlimit="10"/>
<path opacity="0.3" d="M57.8956 58.6223C57.492 64.9969 50.6986 67.8676 43.6242 67.8676C35.2421 67.8676 28.5661 66.754 28.7704 57.6518C29.0616 44.3968 35.6763 35.2742 42.7507 35.2742C49.8251 35.2742 58.769 44.8821 57.8956 58.6223Z" fill="white"/>
<path d="M10.3259 69.3079C11.7459 73.8181 15.2601 76.7296 18.1767 75.8102C21.0933 74.8908 22.3038 70.4929 20.8838 65.9826C20.465 64.6546 19.8418 63.3776 18.999 62.2641C18.6313 61.7788 18.2022 61.3958 17.7885 60.9667C17.3952 60.5581 17.4156 59.8532 17.0632 59.3781C16.7771 58.9899 16.297 58.6886 15.8015 58.7192C15.7402 58.7243 15.6738 58.7294 15.6176 58.7448C15.5206 58.7805 15.5359 58.8009 15.5308 58.9082C15.5257 59.0257 15.5155 59.1381 15.5308 59.2556C15.5563 59.4548 15.6789 59.8174 15.4695 59.9604C15.3571 60.0371 15.1988 59.986 15.1119 59.8838C15.0353 59.7919 15.0149 59.6744 15.0098 59.5569C14.9945 59.2402 14.785 58.9031 14.545 58.6937C14.1772 58.3719 13.4876 58.3872 13.2935 58.8367C13.0841 59.3168 13.5285 59.9809 13.1556 60.3486C13.1045 60.3997 13.0381 60.4355 12.9666 60.4355C12.8849 60.4355 12.8083 60.3793 12.7521 60.318C12.4916 60.0473 12.4048 59.6489 12.1647 59.3577C11.9246 59.0666 11.3781 58.9644 11.2248 59.3117C11.184 59.4037 11.184 59.5058 11.184 59.608C11.1891 60.0422 11.1942 60.4763 11.1942 60.9105C11.1993 61.2629 11.0869 61.7431 10.7345 61.738C10.571 61.738 10.4331 61.6205 10.2799 61.5592C9.80486 61.3651 9.25831 61.7533 9.08975 62.2334C8.92119 62.7136 9.02335 63.2448 9.12551 63.7454C9.51371 65.5791 9.76399 67.5303 10.3259 69.3079Z" fill="#FFA58D" stroke="#111111" stroke-width="1.12373" stroke-miterlimit="10"/>
<path d="M65.4705 38.2112C67.0642 30.7741 62.2117 25.1759 60.0409 19.7411C57.2979 12.8863 49.6106 9.96463 42.6587 9.96973C35.7529 9.96973 29.0769 12.6871 26.3646 18.6582C24.5513 22.6475 20.9349 28.9251 20.9349 34.4109C20.9349 45.2754 29.7614 45.8219 42.1173 45.8168C54.4733 45.8117 63.8411 45.8168 65.4705 38.2112Z" fill="#FFB061" stroke="#111111" stroke-width="1.12373" stroke-miterlimit="10"/>
<path d="M49.6768 29.5994C50.3511 30.7691 51.531 31.3514 52.3125 30.9019C53.094 30.4524 53.5639 29.1193 53.0378 27.878C52.3687 26.3048 50.6473 26.218 49.8709 26.6726C49.0843 27.117 49.0026 28.4297 49.6768 29.5994Z" fill="#111111"/>
<path d="M50.9539 28.4806C51.1091 28.4806 51.2348 28.3548 51.2348 28.1996C51.2348 28.0445 51.1091 27.9187 50.9539 27.9187C50.7988 27.9187 50.673 28.0445 50.673 28.1996C50.673 28.3548 50.7988 28.4806 50.9539 28.4806Z" fill="white"/>
<path d="M37.0809 29.4919C36.4833 30.7025 35.3443 31.3563 34.5372 30.9579C33.7302 30.5595 33.1121 29.2365 33.6229 27.9851C34.3074 26.2995 35.901 26.1769 36.7081 26.5753C37.5151 26.9737 37.6786 28.2814 37.0809 29.4919Z" fill="#111111"/>
<path d="M34.8846 28.4806C35.0397 28.4806 35.1655 28.3548 35.1655 28.1996C35.1655 28.0445 35.0397 27.9187 34.8846 27.9187C34.7294 27.9187 34.6036 28.0445 34.6036 28.1996C34.6036 28.3548 34.7294 28.4806 34.8846 28.4806Z" fill="white"/>
<path opacity="0.6" d="M61.4711 27.7092C55.5664 27.7092 56.639 33.19 51.807 33.7416C46.7451 34.3137 46.9749 30.4522 42.6792 30.4522C39.0781 30.4522 36.8051 36.5152 32.4787 32.0969C26.9112 26.4118 23.4225 27.7654 21.5428 29.6809C21.1699 31.1417 20.9349 32.6026 20.9349 34.0124C20.9349 44.979 29.6592 45.5306 41.8772 45.5255C54.0953 45.5204 63.3559 45.5255 64.9649 37.8484C65.7872 33.9357 65.4092 31.6219 64.0454 28.4805C63.2282 27.9953 62.3701 27.7092 61.4711 27.7092Z" fill="white"/>
<path d="M65.4705 38.2112C67.0642 30.7741 62.2117 25.1759 60.0409 19.7411C57.2979 12.8863 49.6106 9.96463 42.6587 9.96973C35.7529 9.96973 29.0769 12.6871 26.3646 18.6582C24.5513 22.6475 20.9349 28.9251 20.9349 34.4109C20.9349 45.2754 29.7614 45.8219 42.1173 45.8168C54.4733 45.8117 63.8411 45.8168 65.4705 38.2112Z" stroke="#111111" stroke-width="1.12373" stroke-miterlimit="10"/>
<path d="M76.3963 69.3078C74.9763 73.8181 71.462 76.7296 68.5455 75.8102C65.6289 74.8908 64.4183 70.4929 65.8383 65.9826C66.0426 65.3339 66.2418 64.6086 66.676 64.0672C66.7628 63.9599 66.8445 63.8679 66.8956 63.7351C66.9875 63.4849 67.0437 63.255 67.1663 63.0098C67.4524 62.4531 67.7231 61.881 68.0347 61.3293C68.0908 61.2323 68.147 61.1455 68.2237 61.0637C68.382 60.8952 68.5403 60.7368 68.6731 60.5427C68.9643 60.129 69.2146 59.6131 69.7152 59.419C70.1749 59.2402 70.6857 59.4241 70.9666 59.8123C71.0228 59.8889 71.0687 59.9502 71.0738 60.0473C71.0892 60.2975 70.9513 60.5529 70.9564 60.8134C70.9615 60.9258 70.9819 61.1812 71.1147 61.2323C71.319 61.314 71.4825 60.8696 71.5438 60.7419C71.7941 60.2107 71.9728 59.4956 72.4581 59.1074C72.5756 59.0155 72.7237 58.9593 72.8156 59.1125C73.0199 59.4598 72.6726 60.0421 73.0455 60.272C73.3622 60.4661 73.638 60.3691 73.8679 60.1085C74.1488 59.7868 74.3582 59.4037 74.7056 59.1483C75.0886 58.8622 75.5484 58.9593 75.865 59.2964C75.9161 59.3526 75.9672 59.4139 76.0081 59.4803C76.2226 59.8225 76.2737 60.2414 76.3247 60.6449C76.2839 60.318 76.6363 60.0319 76.9632 60.0626C77.2901 60.0932 77.5609 60.3639 77.6886 60.6704C77.8162 60.9769 77.8316 61.314 77.8418 61.646C77.8827 62.7646 77.9235 63.8935 77.8316 65.0121C77.7958 65.4514 77.7396 65.8192 77.5353 66.2074C77.3208 66.6109 77.2646 67.0808 77.0858 67.4997C77.0194 67.6529 76.9479 67.7959 76.856 67.9338C76.5852 68.3373 76.5393 68.8532 76.3963 69.3078Z" fill="#FFA58D" stroke="#111111" stroke-width="1.12373" stroke-miterlimit="10"/>
<path d="M43.1542 32.2913C43.1542 32.2913 41.8874 35.4071 38.5111 33.2158" stroke="#111111" stroke-width="1.12373" stroke-miterlimit="10" stroke-linecap="round" stroke-linejoin="round"/>
<path d="M43.1542 32.291C43.1542 32.291 44.4209 35.4068 47.7972 33.2155" stroke="#111111" stroke-width="1.12373" stroke-miterlimit="10" stroke-linecap="round" stroke-linejoin="round"/>
<path d="M43.2462 32.041C43.6088 32.0308 43.9664 31.8775 44.2065 31.6017C44.4057 31.3718 44.6457 30.8815 44.2371 30.7231C44.1298 30.6823 44.0124 30.6823 43.9 30.6925C43.6957 30.7027 43.4913 30.7282 43.287 30.7589C43.1696 30.7793 43.047 30.764 42.9295 30.7589C42.8478 30.7538 42.766 30.7793 42.6843 30.764C42.4698 30.7231 42.245 30.5852 42.0305 30.7129C41.9079 30.7895 41.8466 30.9428 41.8619 31.0858C41.8875 31.3003 42.0458 31.4076 42.1633 31.5608C42.4136 31.8775 42.8426 32.0512 43.2462 32.041Z" fill="#111111"/>
<path d="M56.9812 33.9868L61.4046 33.3943" stroke="#111111" stroke-width="1.12373" stroke-miterlimit="10" stroke-linecap="round" stroke-linejoin="round"/>
<path d="M57.2876 36.3313L61.2002 36.648" stroke="#111111" stroke-width="1.12373" stroke-miterlimit="10" stroke-linecap="round" stroke-linejoin="round"/>
<path d="M29.7358 33.987L25.3124 33.3945" stroke="#111111" stroke-width="1.12373" stroke-miterlimit="10" stroke-linecap="round" stroke-linejoin="round"/>
<path d="M29.4343 36.3313L25.5166 36.648" stroke="#111111" stroke-width="1.12373" stroke-miterlimit="10" stroke-linecap="round" stroke-linejoin="round"/>
<path opacity="0.6" d="M36.0803 23.106C37.4509 22.5228 38.2872 21.4041 37.9481 20.6071C37.6091 19.8102 36.2231 19.6369 34.8525 20.22C33.4818 20.8032 32.6456 21.9219 32.9846 22.7189C33.3237 23.5158 34.7097 23.6891 36.0803 23.106Z" fill="white"/>
<path opacity="0.6" d="M53.7312 22.7198C54.0703 21.9228 53.234 20.8041 51.8634 20.2209C50.4928 19.6378 49.1068 19.8111 48.7677 20.608C48.4287 21.405 49.2649 22.5237 50.6356 23.1069C52.0062 23.69 53.3922 23.5167 53.7312 22.7198Z" fill="white"/>
<path d="M33.9294 65.3593C33.9294 65.3593 27.6518 68.5415 29.1944 73.8588C30.7421 79.171 35.1859 78.2057 35.1859 78.2057C35.1859 78.2057 35.7631 79.0382 36.8307 78.9565C37.8931 78.8799 38.6644 78.4917 38.7614 77.4293C38.7614 77.4293 42.9142 76.755 45.7184 78.0064C45.7184 78.0064 44.753 78.8441 46.2956 79.3396C47.8433 79.8402 48.7116 79.549 49.9681 78.4866C49.9681 78.4866 53.8348 78.5836 55.0862 76.4588C56.3428 74.3339 57.017 72.3469 56.2457 70.0075C55.4744 67.6732 40.0129 63.3366 33.9294 65.3593Z" fill="#FFB061" stroke="#111111" stroke-width="1.12373" stroke-miterlimit="10"/>
<path d="M37.7908 51.2363C37.7908 51.2363 28.4179 57.3198 33.0558 63.5259C33.0558 63.5259 34.0212 65.2217 39.4866 66.2075C40.3039 66.3556 41.1263 66.468 41.9435 66.6059C42.7914 66.7489 43.624 66.9839 44.4719 67.132C44.9827 67.224 45.6314 67.1984 45.7847 67.842C45.8766 68.22 45.5139 68.5673 45.3709 68.8891C45.2228 69.2263 45.1104 69.686 45.2585 70.0486C45.4271 70.4624 45.8919 70.5594 46.2954 70.5594C48.5174 70.5594 50.0753 69.2212 50.0753 69.2212C50.0753 69.2212 54.7132 70.9578 55.4845 72.0254C56.2558 73.0878 54.8103 75.1157 56.644 75.2127C58.4777 75.3098 59.6372 74.9215 60.0254 73.8591C60.0254 73.8591 65.2661 71.9947 65.5011 68.6235C65.6134 66.9686 67.1765 64.7058 60.1225 56.9622C53.0685 49.2187 39.0474 50.0768 37.7908 51.2363Z" fill="#FFB061" stroke="#111111" stroke-width="1.12373" stroke-miterlimit="10"/>
<path opacity="0.6" d="M35.8602 59.2658C37.0555 58.612 38.4244 58.3209 39.7831 58.2596C41.198 58.1932 42.7456 58.423 43.7161 59.4497C44.5845 60.3691 44.7939 61.6972 45.0851 62.9282C45.1412 63.1631 45.2076 63.4134 45.3813 63.5871C45.5601 63.7608 45.8155 63.8272 46.0607 63.868C47.5368 64.1336 49.059 63.9906 50.5403 64.2051C53.273 64.6036 55.781 66.2994 57.1754 68.6848C57.5432 69.313 57.8394 70.0281 57.7628 70.7534C57.6811 71.4788 57.1141 72.1888 56.3837 72.2041C55.8627 72.2143 55.4081 71.8925 54.9892 71.586C53.9421 70.8147 52.8797 70.0434 51.664 69.5786C50.8416 69.2619 50.1316 68.9861 49.2429 69.2364C48.9773 69.313 48.7729 69.4663 48.5431 69.6144C48.1855 69.8442 47.7412 69.926 47.3223 69.9668C46.7247 70.0281 45.8359 70.2682 45.555 69.5633C45.3864 69.1342 45.8104 68.8993 45.8921 68.5213C45.984 68.1025 45.6316 67.796 45.3047 67.607C44.8297 67.3312 44.2218 67.0451 43.6651 67.0298C43.1134 67.0145 42.6026 66.851 42.0663 66.7233C40.5288 66.3556 38.9965 65.9929 37.459 65.6251C36.8256 65.4719 36.1871 65.3238 35.5997 65.0377C34.4453 64.481 33.5668 63.4747 32.7597 62.5144C32.4941 62.1977 31.9936 61.498 32.4635 61.1404C32.6218 61.0178 32.8517 60.9872 33.0407 60.931C33.3267 60.8442 33.5821 60.7165 33.8426 60.5632C34.5271 60.1495 35.1553 59.6489 35.8602 59.2658Z" fill="white"/>
<path d="M37.7908 51.2363C37.7908 51.2363 28.4179 57.3198 33.0558 63.5259C33.0558 63.5259 34.0212 65.2217 39.4866 66.2075C40.3039 66.3556 41.1263 66.468 41.9435 66.6059C42.7914 66.7489 43.624 66.9839 44.4719 67.132C44.9827 67.224 45.6314 67.1984 45.7847 67.842C45.8766 68.22 45.5139 68.5673 45.3709 68.8891C45.2228 69.2263 45.1104 69.686 45.2585 70.0486C45.4271 70.4624 45.8919 70.5594 46.2954 70.5594C48.5174 70.5594 50.0753 69.2212 50.0753 69.2212C50.0753 69.2212 54.7132 70.9578 55.4845 72.0254C56.2558 73.0878 54.8103 75.1157 56.644 75.2127C58.4777 75.3098 59.6372 74.9215 60.0254 73.8591C60.0254 73.8591 65.2661 71.9947 65.5011 68.6235C65.6134 66.9686 67.1765 64.7058 60.1225 56.9622C53.0685 49.2187 39.0474 50.0768 37.7908 51.2363Z" stroke="#111111" stroke-width="1.12373" stroke-miterlimit="10"/>
<path d="M39.977 70.8197C39.9719 71.1773 39.9668 71.5348 39.9617 71.8924C39.9514 72.6637 39.9923 73.5575 40.6104 74.0173C41.3101 73.6137 41.3868 72.6483 41.8209 71.9639C42.0201 71.6574 42.3062 71.3816 42.3573 71.0189C42.4237 70.5337 41.9997 70.074 41.5145 70.0025C41.0292 69.9309 40.544 70.1812 40.2171 70.5439C40.0638 70.7227 40.1047 70.6358 39.977 70.8197Z" stroke="#111111" stroke-width="1.12373" stroke-miterlimit="10"/>
<path d="M37.4589 59.1432C38.2761 59.1483 38.9299 58.6528 38.9197 58.0399C38.9095 57.4269 38.3425 56.6965 37.5304 56.579C36.4986 56.436 35.952 57.4167 35.9674 58.0245C35.9725 58.6426 36.6416 59.1432 37.4589 59.1432Z" fill="#111111"/>
<path d="M37.1075 58.1106C37.2001 58.1015 37.2667 58.0075 37.2561 57.9009C37.2455 57.7942 37.1619 57.7152 37.0692 57.7243C36.9766 57.7335 36.9101 57.8274 36.9206 57.9341C36.9312 58.0408 37.0149 58.1198 37.1075 58.1106Z" fill="white"/>
<path d="M50.0599 58.9082C51.366 58.9082 52.4248 57.623 52.4248 56.0376C52.4248 54.4522 51.366 53.167 50.0599 53.167C48.7538 53.167 47.6949 54.4522 47.6949 56.0376C47.6949 57.623 48.7538 58.9082 50.0599 58.9082Z" fill="#FFB061" stroke="#111111" stroke-width="1.12373" stroke-miterlimit="10" stroke-linecap="round" stroke-linejoin="round"/>
<path d="M40.5797 59.4395C41.8858 59.4395 42.9446 58.1543 42.9446 56.5689C42.9446 54.9835 41.8858 53.6982 40.5797 53.6982C39.2735 53.6982 38.2147 54.9835 38.2147 56.5689C38.2147 58.1543 39.2735 59.4395 40.5797 59.4395Z" fill="#FFB061" stroke="#111111" stroke-width="1.12373" stroke-miterlimit="10" stroke-linecap="round" stroke-linejoin="round"/>
<path d="M58.8914 44.2893C57.1649 46.1026 54.1922 46.4347 52.3789 44.7031C50.5656 42.9766 49.4878 41.5311 50.3919 39.1917C51.914 35.2382 57.3795 36.5611 59.0651 38.2672C60.8222 40.0447 60.6179 42.476 58.8914 44.2893Z" fill="#FFB061" stroke="#111111" stroke-width="1.12373" stroke-miterlimit="10"/>
<path d="M51.6946 40.0447C55.7605 37.8126 58.2072 39.7433 59.244 41.2859C60.0153 42.4403 60.0971 43.0226 58.8916 44.2894C57.1651 46.1027 54.1924 46.4347 52.3791 44.7031L51.5056 43.8705L51.6946 40.0447Z" fill="#CC7627" stroke="#111111" stroke-width="0.510788" stroke-miterlimit="10"/>
<path d="M51.6946 40.0448C55.3518 37.8433 58.2072 39.7434 59.244 41.286C60.0153 42.4404 60.0971 43.0227 58.8916 44.2894C57.1651 46.1027 54.1924 46.4347 52.3791 44.7031L51.5056 43.8706L51.6946 40.0448Z" stroke="#111111" stroke-width="1.12373" stroke-miterlimit="10"/>
<path d="M28.9236 46.2864C30.65 48.0997 33.6228 48.4317 35.4361 46.7002C37.2494 44.9737 38.3272 43.5282 37.4231 41.1888C35.9009 37.2353 30.4355 38.5582 28.7499 40.2642C26.9877 42.0418 27.1971 44.4731 28.9236 46.2864Z" fill="#FFB061" stroke="#111111" stroke-width="1.12373" stroke-miterlimit="10"/>
<path d="M36.1206 42.042C32.0547 39.8099 29.608 41.7407 28.5711 43.2832C27.7998 44.4376 27.7181 45.0199 28.9236 46.2867C30.65 48.1 33.6228 48.432 35.4361 46.7004L36.3096 45.8678L36.1206 42.042Z" fill="#CC7627" stroke="#111111" stroke-width="0.510788" stroke-miterlimit="10"/>
<path d="M36.1206 42.0421C32.4633 39.8406 29.608 41.7407 28.5711 43.2833C27.7998 44.4377 27.7181 45.02 28.9236 46.2867C30.65 48.1 33.6228 48.432 35.4361 46.7005L36.3096 45.8679L36.1206 42.0421Z" stroke="#111111" stroke-width="1.12373" stroke-miterlimit="10"/>
<path d="M37.3057 55.9047C37.3057 55.9047 32.6881 55.6698 31.6053 52.2475C31.0281 50.4189 30.7369 47.5176 33.25 44.177C35.7631 40.8365 41.7495 37.8535 49.8659 39.345C57.9824 40.8365 58.8507 47.5023 58.8507 48.4677C58.8507 49.433 58.9477 54.2651 54.795 54.5562C50.6423 54.8474 42.4135 55.9098 39.8596 55.9098C37.3057 55.9098 37.3057 55.9047 37.3057 55.9047Z" fill="#FFB061" stroke="#111111" stroke-width="1.12373" stroke-miterlimit="10" stroke-linecap="round" stroke-linejoin="round"/>
<path opacity="0.6" d="M56.0311 45.2497C52.4556 45.4643 53.2882 48.4473 50.3818 48.9274C47.3375 49.428 47.3477 47.2929 44.7427 47.4512C42.5616 47.584 41.3868 51.0114 38.6183 48.7333C35.0581 45.8065 32.9894 46.68 31.9168 47.8037C31.738 48.6209 31.6461 49.4382 31.692 50.2146C32.0598 56.2572 37.3618 56.2419 44.758 55.7924C52.1542 55.3429 57.7627 55.0058 58.4829 50.7152C58.8506 48.529 58.5442 47.2674 57.6145 45.5869C57.1037 45.3417 56.5776 45.2191 56.0311 45.2497Z" fill="white"/>
<path d="M49.2988 49.2542C50.1161 49.2594 50.7699 48.7639 50.7597 48.1509C50.7495 47.538 50.1825 46.8076 49.3703 46.6901C48.3385 46.5471 47.792 47.5278 47.8073 48.1356C47.8124 48.7486 48.4816 49.2491 49.2988 49.2542Z" fill="#111111"/>
<path d="M48.9476 48.2168C49.0402 48.2077 49.1068 48.1137 49.0962 48.0071C49.0856 47.9004 49.0019 47.8214 48.9093 47.8305C48.8167 47.8397 48.7501 47.9336 48.7607 48.0403C48.7713 48.147 48.855 48.226 48.9476 48.2168Z" fill="white"/>
<path d="M40.7789 50.1174C39.977 50.2809 39.2415 49.9233 39.1342 49.3257C39.0269 48.7281 39.4356 47.8904 40.212 47.6197C41.1927 47.2774 41.9231 48.1305 42.0304 48.7332C42.1376 49.3359 41.5809 49.954 40.7789 50.1174Z" fill="#111111"/>
<path d="M40.9129 49.034C41.0056 49.0248 41.0721 48.9309 41.0615 48.8242C41.0509 48.7175 40.9673 48.6385 40.8746 48.6477C40.782 48.6569 40.7155 48.7508 40.726 48.8575C40.7366 48.9641 40.8203 49.0432 40.9129 49.034Z" fill="white"/>
<path d="M45.044 50.5515C45.044 50.5515 44.5486 52.2678 42.6484 51.2973" stroke="#111111" stroke-width="1.12373" stroke-miterlimit="10" stroke-linecap="round" stroke-linejoin="round"/>
<path d="M45.0441 50.5515C45.0441 50.5515 45.8869 52.1298 47.5418 50.7814" stroke="#111111" stroke-width="1.12373" stroke-miterlimit="10" stroke-linecap="round" stroke-linejoin="round"/>
<path d="M52.2308 49.5608L53.9931 48.9019" stroke="#111111" stroke-width="1.12373" stroke-miterlimit="10" stroke-linecap="round" stroke-linejoin="round"/>
<path d="M52.5424 51.4355L54.1718 51.5326" stroke="#111111" stroke-width="1.12373" stroke-miterlimit="10" stroke-linecap="round" stroke-linejoin="round"/>
<path d="M37.7449 50.6693L35.8907 50.3679" stroke="#111111" stroke-width="1.12373" stroke-miterlimit="10" stroke-linecap="round" stroke-linejoin="round"/>
<path d="M37.8061 52.5645L36.2329 52.9782" stroke="#111111" stroke-width="1.12373" stroke-miterlimit="10" stroke-linecap="round" stroke-linejoin="round"/>
<path d="M37.3057 55.9047C37.3057 55.9047 32.6881 55.6698 31.6053 52.2475C31.0281 50.4189 30.7369 47.5176 33.25 44.177C35.7631 40.8365 41.7495 37.8535 49.8659 39.345C57.9824 40.8365 58.8507 47.5023 58.8507 48.4677C58.8507 49.433 58.9477 54.2651 54.795 54.5562C50.6423 54.8474 42.4135 55.9098 39.8596 55.9098C37.3057 55.9098 37.3057 55.9047 37.3057 55.9047Z" stroke="#111111" stroke-width="1.12373" stroke-miterlimit="10" stroke-linecap="round" stroke-linejoin="round"/>
<path d="M21.037 47.0529C20.5518 48.9173 20.8123 50.9349 21.5938 52.6818C23.3203 56.528 27.2329 58.9798 30.9361 60.6347C31.3601 60.8237 31.7994 61.0842 32.2591 61.1711C32.4838 61.2119 32.7188 61.2375 32.9486 61.2732C33.4083 61.3396 33.868 61.406 34.3278 61.4724C34.7568 61.5337 35.1859 61.595 35.6098 61.6563C36.0031 61.7125 36.4373 61.7278 36.8153 61.8606C37.0809 61.9577 37.2852 62.0649 37.5713 62.0905C38.0003 62.1262 38.4345 62.1262 38.8635 62.116C39.2875 62.1058 39.7166 62.0803 40.1099 61.9117C40.4981 61.7483 40.8403 61.4162 40.9169 60.9974C40.9884 60.5939 40.7586 60.4304 40.5696 60.1291C40.4317 59.9094 40.6156 59.6591 40.6768 59.4344C40.8148 58.9338 40.7535 58.3822 40.1712 58.2443C38.9146 57.948 39.4407 58.3924 37.6479 57.5751C35.855 56.7579 34.3431 52.9218 32.065 49.0552C28.0706 42.2821 23.9179 43.6613 22.4826 44.6522C21.5529 45.3009 21.129 46.7107 21.037 47.0529Z" fill="#FFB061" stroke="#111111" stroke-width="1.12373" stroke-miterlimit="10"/>
<path d="M66.9159 45.7249C67.723 47.4769 67.8251 49.5048 67.3654 51.364C66.349 55.4554 62.9318 58.561 59.581 60.8443C59.1928 61.1099 58.8097 61.4419 58.3705 61.6104C58.1559 61.6922 57.9312 61.7586 57.7115 61.8301C57.2723 61.9782 56.833 62.1212 56.3937 62.2693C55.9851 62.4073 55.5713 62.5452 55.1627 62.678C54.7847 62.8057 54.3608 62.8976 54.0134 63.0968C53.7683 63.2347 53.5844 63.3829 53.3086 63.4595C52.8948 63.5719 52.4658 63.6485 52.0418 63.7149C51.623 63.7813 51.1939 63.8324 50.7802 63.7353C50.3664 63.6434 49.9731 63.3778 49.825 62.9793C49.682 62.5963 49.8812 62.3919 50.0089 62.065C50.1059 61.825 49.8812 61.6104 49.779 61.3959C49.5543 60.926 49.5134 60.3743 50.0702 60.1343C51.2501 59.6184 50.8108 60.1496 52.4351 59.031C54.0594 57.9123 54.8665 53.8669 56.4244 49.658C59.152 42.2873 63.4886 42.9105 65.0771 43.6307C66.1038 44.0955 66.7729 45.4082 66.9159 45.7249Z" fill="#FFB061" stroke="#111111" stroke-width="1.12373" stroke-miterlimit="10"/>
<path d="M51.4849 13.881C52.491 11.5162 49.3083 7.89797 44.3762 5.79957C39.444 3.70117 34.63 3.91717 33.6239 6.28202C32.6178 8.64687 35.8005 12.2651 40.7326 14.3635C45.6648 16.4619 50.4788 16.2459 51.4849 13.881Z" fill="#A89486" stroke="#111111" stroke-width="1.12373" stroke-miterlimit="10"/>
<path d="M51.4848 13.8805C52.1453 12.3282 48.6824 9.36866 43.7502 7.27026C38.818 5.17185 34.2843 4.72918 33.6238 6.28153C32.9634 7.83387 36.4263 10.7934 41.3585 12.8918C46.2907 14.9902 50.8244 15.4329 51.4848 13.8805Z" fill="#685649" stroke="#111111" stroke-width="1.12373" stroke-miterlimit="10"/>
<path d="M51.4849 13.8807C51.7047 13.3641 47.8845 11.2442 42.9524 9.14583C38.0202 7.04742 33.8437 5.76511 33.6239 6.28169C33.4041 6.79827 37.2243 8.91813 42.1565 11.0165C47.0887 13.1149 51.2651 14.3973 51.4849 13.8807Z" fill="#A89486" stroke="#111111" stroke-width="1.12373" stroke-miterlimit="10"/>
</svg>
