<svg width="24" height="24" viewBox="0 0 24 24" fill="none" xmlns="http://www.w3.org/2000/svg">
<path d="M11.1252 14.6127C11.1252 14.8448 11.2174 15.0674 11.3814 15.2315C11.5455 15.3956 11.7681 15.4877 12.0002 15.4877C12.2322 15.4877 12.4548 15.3956 12.6189 15.2315C12.783 15.0674 12.8752 14.8448 12.8752 14.6127V8.3495L15.7128 11.1871L16.95 9.94987L12.0002 5L7.05029 9.94987L8.28754 11.1871L11.1252 8.35125V14.6136V14.6127Z" fill="#9E9B9F"/>
<path d="M5 13.75H6.75V17.25H17.25V13.75H19V17.25C19 17.7141 18.8156 18.1592 18.4874 18.4874C18.1592 18.8156 17.7141 19 17.25 19H6.75C6.28587 19 5.84075 18.8156 5.51256 18.4874C5.18437 18.1592 5 17.7141 5 17.25V13.75Z" fill="#9E9B9F"/>
</svg>
