<svg width="88" height="88" viewBox="0 0 88 88" fill="none" xmlns="http://www.w3.org/2000/svg">
<path d="M69.5589 23.8175C68.5838 26.8222 65.7662 28.6023 63.2661 27.7916C60.7659 26.9809 60.6922 24.0273 60.5108 20.8809C60.3408 17.9499 61.9225 13.2728 67.1665 15.138C70.0521 16.1641 70.534 20.8129 69.5589 23.8175Z" fill="#FFDBC7" stroke="#111111" stroke-width="1.24722" stroke-miterlimit="10"/>
<path d="M66.2026 18.8853C66.2026 18.8853 63.9576 20.5407 63.6118 24.1633Z" fill="#FFDBC7"/>
<path d="M66.2026 18.8853C66.2026 18.8853 63.9576 20.5407 63.6118 24.1633" stroke="#111111" stroke-width="1.24722" stroke-miterlimit="10" stroke-linecap="round" stroke-linejoin="round"/>
<path d="M16.6255 23.9991C17.7254 26.964 20.611 28.6251 23.0771 27.7124C25.5375 26.7996 25.4922 23.8403 25.5488 20.6939C25.5999 17.7573 23.8197 13.1482 18.6608 15.2288C15.8205 16.3683 15.5257 21.0341 16.6255 23.9991Z" fill="#FFDBC7" stroke="#111111" stroke-width="1.24722" stroke-miterlimit="10"/>
<path d="M19.7776 18.9307C19.7776 18.9307 22.0906 20.4897 22.5838 24.101Z" fill="#FFDBC7"/>
<path d="M19.7776 18.9307C19.7776 18.9307 22.0906 20.4897 22.5838 24.101" stroke="#111111" stroke-width="1.24722" stroke-miterlimit="10" stroke-linecap="round" stroke-linejoin="round"/>
<path d="M44.6881 57.8497C44.6881 57.8497 74.355 56.6421 72.6202 40.1221C70.8231 23.0408 78.3914 14.4633 81.3508 15.7899C84.3101 17.1165 83.5617 18.6245 82.2408 22.729C80.9199 26.8335 80.1546 28.2905 80.0752 33.4892C80.0185 37.3782 81.5945 43.4953 78.3007 51.846C75.846 58.0651 68.7481 65.4067 59.9779 65.8319C51.2077 66.2571 44.6881 57.8497 44.6881 57.8497Z" fill="#FF9239" stroke="#111111" stroke-width="1.24722" stroke-miterlimit="10"/>
<path d="M58.8781 39.4644C61.707 39.5551 71.3617 41.2899 72.9944 61.03C73.0001 61.0923 73.0001 61.149 73.0001 61.2114C72.9887 61.7159 72.9887 64.4542 74.5704 65.3045C76.1918 66.1719 73.2552 68.7004 70.7494 67.4985C70.3526 67.3114 69.9047 67.2604 69.4965 67.4248L69.3434 67.4872C69.2754 67.5155 69.213 67.5325 69.145 67.5495C68.6461 67.6743 66.6336 68.0824 66.6506 66.6595C66.6732 65.0324 67.0531 65.8261 66.6109 63.36C66.1687 60.8939 61.9508 57.6908 57.937 53.5523C50.9016 46.2958 53.8666 41.7491 55.5163 40.3601C56.5878 39.4587 58.4359 39.4474 58.8781 39.4644Z" fill="#FF9239" stroke="#111111" stroke-width="1.24722" stroke-miterlimit="10"/>
<path d="M72.796 61.7783C72.7846 62.2829 72.9831 64.4542 74.5648 65.2989C76.1862 66.1663 73.2495 68.6947 70.7437 67.4929C70.3469 67.3058 69.899 67.2548 69.4908 67.4192L69.3378 67.4815C69.2697 67.5099 69.2074 67.5269 69.1394 67.5439C68.6405 67.6686 66.6279 68.0768 66.6449 66.6538C66.6676 65.0268 67.0474 65.8205 66.6052 63.3544L72.796 61.7783Z" fill="#FF9239" stroke="#111111" stroke-width="1.24722" stroke-miterlimit="10"/>
<path d="M27.21 39.4644C24.3811 39.5551 14.7264 41.2899 13.0937 61.03C13.088 61.0923 13.088 61.149 13.088 61.2114C13.0994 61.7159 13.0994 64.4542 11.5177 65.3045C9.89627 66.1719 12.8329 68.7004 15.3387 67.4985C15.7355 67.3114 16.1834 67.2604 16.5916 67.4248L16.7447 67.4872C16.8127 67.5155 16.875 67.5325 16.9431 67.5495C17.442 67.6743 19.4545 68.0824 19.4375 66.6595C19.4148 65.0324 19.035 65.8261 19.4772 63.36C19.9194 60.8939 24.1373 57.6908 28.1511 53.5523C35.1865 46.2958 32.2215 41.7491 30.5718 40.3601C29.5003 39.4587 27.6465 39.4474 27.21 39.4644Z" fill="#FF9239" stroke="#111111" stroke-width="1.24722" stroke-miterlimit="10"/>
<path d="M13.2922 61.7783C13.3035 62.2829 13.1051 64.4542 11.5234 65.2989C9.90201 66.1663 12.8387 68.6947 15.3444 67.4929C15.7413 67.3058 16.1891 67.2548 16.5973 67.4192L16.7504 67.4815C16.8184 67.5099 16.8808 67.5269 16.9488 67.5439C17.4477 67.6686 19.4603 68.0768 19.4433 66.6538C19.4206 65.0268 19.0407 65.8205 19.4829 63.3544L13.2922 61.7783Z" fill="#FF9239" stroke="#111111" stroke-width="1.24722" stroke-miterlimit="10"/>
<path opacity="0.4" d="M6.0866 85.0449C7.41886 88.0552 11.8635 88.0552 14.7038 87.9815C15.4521 87.9588 16.1721 88.0212 16.9147 87.9135C17.1245 87.8851 17.3343 87.8568 17.544 87.8455C17.8332 87.8285 18.1223 87.8398 18.4114 87.8568C19.2221 87.9022 20.0045 87.8455 20.8095 87.7718C22.8164 87.5847 24.88 87.2275 26.8982 87.2955C28.6386 87.3522 30.3394 87.0574 32.0798 87.0348C37.2275 86.9724 42.3694 86.91 47.517 86.842C52.6647 86.7797 57.8066 86.7173 62.9542 86.6493C63.9067 86.6379 64.8591 86.6379 65.8115 86.6152C66.1403 86.6096 66.3501 86.5302 66.6505 86.4338C67.0587 86.3034 67.5179 86.2978 67.9488 86.2694C69.0316 86.1957 70.2845 86.0823 71.3276 86.4395C72.2404 86.757 72.9207 86.9157 73.9184 86.8874C74.8709 86.859 75.8233 86.808 76.7757 86.757C77.4333 86.723 77.9946 86.893 78.6636 86.7683C80.0695 86.5019 81.3791 85.7365 82.2748 84.6197C82.9438 83.792 83.369 82.7829 83.5334 81.7341C83.6524 80.9574 83.8622 80.107 83.8906 79.3247C83.9359 78.0434 82.7284 76.9153 81.8213 76.2236C78.7656 73.8879 74.7632 73.2303 71.1689 72.1531C70.8911 72.0681 70.6133 71.9887 70.3355 71.9037C68.0792 71.2404 65.2843 70.3674 62.9542 71.076C62.3987 71.2461 61.7864 71.1667 61.2138 71.1667C59.5811 71.1667 57.954 71.1724 56.3213 71.1724C52.9254 71.178 49.5239 71.178 46.1281 71.1837C39.4668 71.1894 32.8055 71.2064 26.1442 71.2064C23.7348 71.2064 21.3027 71.2121 18.9386 71.6883C15.8716 72.3062 12.986 73.7462 10.6106 75.7814C9.62984 76.6261 8.98355 77.9414 7.86105 78.616C7.6683 78.7351 7.45854 78.7861 7.29413 78.9392C6.85761 79.3417 6.54013 80.056 6.29636 80.5889C5.78613 81.7227 5.54802 83.0096 5.82015 84.2342C5.88251 84.5233 5.97321 84.7954 6.0866 85.0449Z" fill="#D1D1D1"/>
<path d="M67.9091 63.8759C67.6427 63.7172 67.3649 63.5754 67.0928 63.4394C66.214 46.4772 55.7827 27.9389 43.0327 27.9446C30.2884 27.9503 19.8684 46.4828 18.9954 63.4394C18.7232 63.5698 18.4511 63.7115 18.179 63.8702C12.215 67.4475 7.86108 71.552 9.43144 76.3708C11.0018 81.1839 16.9374 80.7304 23.8652 80.1011C25.2088 79.9764 26.4277 79.5909 27.5105 79.024C31.0934 79.88 36.8193 80.6454 42.874 80.6454C48.4071 80.6454 54.5072 79.6873 58.1921 78.8029C59.3657 79.4945 60.7149 79.9594 62.2229 80.0955C69.1507 80.7247 75.0863 81.1783 76.6567 76.3651C78.2214 71.5577 73.8731 67.4532 67.9091 63.8759Z" fill="#FF9239" stroke="#111111" stroke-width="1.24722" stroke-miterlimit="10"/>
<path d="M59.1729 60.1739C58.7251 67.249 51.185 70.4351 43.3332 70.4351C35.4814 70.4351 26.6885 66.1775 26.8472 59.0967C27.1704 44.3852 34.512 34.26 42.3638 34.26C50.2156 34.26 60.148 44.9181 59.1729 60.1739Z" fill="#FFDBC7"/>
<path d="M6.3757 75.9968C7.95174 81.0027 11.8521 84.2341 15.0892 83.2136C18.3264 82.1932 19.67 77.312 18.0939 72.3061C17.9635 72.0397 17.8955 71.7165 17.7878 71.4331C17.6744 71.1439 17.5553 70.8548 17.425 70.5713C16.9884 69.6246 16.4442 68.7232 15.7922 67.9068C15.6392 67.7197 15.4804 67.5327 15.316 67.3512C15.1743 67.1925 14.9872 67.0508 14.8852 66.8637C14.6074 66.3365 14.3182 65.8092 14.0291 65.2877C13.774 64.8285 13.4509 64.3182 12.935 64.2275C12.2717 64.1085 11.7331 64.7264 11.3419 65.2706C11.597 64.8398 11.2852 64.2275 10.809 64.0858C10.3328 63.9384 9.79422 64.1878 9.49376 64.5847C9.26699 64.8795 9.14227 65.2536 9.14794 65.6221C9.10258 65.0722 8.4563 64.7151 7.92339 64.8511C7.24876 65.0155 6.67617 65.8149 6.92561 66.4952C6.98798 66.6709 7.22041 66.9714 7.15805 67.1642C7.07868 67.4306 6.75554 67.2379 6.7442 67.578C6.51743 67.3286 6.3757 67.0451 6.01854 66.9657C5.68406 66.892 5.29856 67.0451 5.13415 67.3456C5.03777 67.5213 5.02077 67.7254 5.00943 67.9238C4.96408 68.8252 5.08313 69.7266 5.34958 70.5883C5.41761 70.7981 5.49131 71.0079 5.57635 71.212C5.64438 71.3764 5.74642 71.5408 5.75776 71.7279C5.7691 72.0227 5.72942 72.3118 5.74642 72.6066C5.80878 73.7688 6.02988 74.9026 6.3757 75.9968Z" fill="#FFDBC7" stroke="#111111" stroke-width="1.24722" stroke-miterlimit="10" stroke-linejoin="round"/>
<path d="M67.586 37.52C69.3548 29.2656 63.969 23.0522 61.5596 17.0202C58.5096 9.40644 49.9831 6.16934 42.2617 6.16934C40.9691 6.16934 44.501 3.23837 44.6881 1.98547C45.2153 -1.56911 36.5698 6.74192 35.6684 6.96869C30.6172 8.2556 26.3029 11.1355 24.177 15.8126C22.1644 20.2403 18.1506 27.2077 18.1506 33.2964C18.1506 45.3548 27.947 45.9614 41.6608 45.9557C55.3745 45.95 65.7775 45.9614 67.586 37.52Z" fill="#FF9239" stroke="#111111" stroke-width="1.24722" stroke-miterlimit="10"/>
<path d="M79.7067 75.9967C78.1306 81.0026 74.2302 84.2341 70.9931 83.2136C67.756 82.1932 66.4124 77.312 67.9884 72.3061C68.2719 71.4104 68.6347 70.543 69.0826 69.7209C69.3037 69.3128 69.5531 68.9159 69.8196 68.5361C69.984 68.298 70.2958 68.0315 70.3922 67.7651C70.5169 67.4306 70.5396 67.0281 70.6586 66.6822C70.9137 65.9339 71.3049 65.2253 71.8038 64.6073C72.0192 64.3465 72.263 64.0858 72.5862 63.9837C72.9093 63.8817 73.3175 63.978 73.4649 64.2842C73.5953 64.5563 73.5329 64.9588 73.805 65.0892C74.1565 64.7207 74.5193 64.3635 74.9049 64.0291C75.0409 63.91 75.1826 63.791 75.3584 63.7456C75.7042 63.6606 76.0614 63.9043 76.2258 64.2218C76.3902 64.5393 76.4015 64.9078 76.4072 65.265C76.7984 65.0325 76.8834 64.4089 77.3143 64.2728C77.7111 64.1481 78.1023 64.5336 78.2213 64.9361C78.3404 65.3386 78.312 65.7752 78.4708 66.1607C78.6749 65.8772 78.9186 65.5711 79.2645 65.5257C79.8541 65.4577 80.1999 66.1664 80.3133 66.7446C80.5287 67.8501 80.6477 69.1597 80.3303 70.2538C80.1999 70.7074 80.3529 71.28 80.3529 71.7562C80.3586 72.3344 80.3189 72.9184 80.2452 73.4909C80.1545 74.347 79.9674 75.186 79.7067 75.9967Z" fill="#FFDBC7" stroke="#111111" stroke-width="1.24722" stroke-miterlimit="10" stroke-linecap="round" stroke-linejoin="round"/>
<path d="M60.7376 29.4017C60.7376 38.5064 52.3415 42.3728 42.5678 42.3728C32.7942 42.3728 25.3448 38.5008 25.3448 29.4017C25.3448 23.2393 28.9731 17.8706 34.3475 15.0417C36.9157 13.6924 39.6766 21 42.84 21C45.6292 21 48.4695 13.5223 50.8165 14.5881C56.6955 17.2753 60.7376 22.8992 60.7376 29.4017Z" fill="#FFDBC7"/>
<path d="M54.1556 25.0419C54.1556 24.7018 54.1442 24.3616 54.1499 24.0215C54.1556 23.8854 54.1726 23.7493 54.1612 23.6133C54.1556 23.5226 54.1215 23.4432 54.1045 23.3582C54.0535 23.1087 53.9685 22.8819 53.7757 22.7005C53.5263 22.4681 53.2088 22.4001 52.88 22.4284C52.245 22.4794 51.6101 22.5135 50.9751 22.5191C50.6577 22.5248 50.3402 22.5191 50.0227 22.5078C49.864 22.5021 49.7052 22.4964 49.5465 22.4908C49.3934 22.4851 49.229 22.4454 49.0816 22.4851C48.0612 22.7742 48.2256 24.2992 48.2256 25.0476C48.2256 27.3209 49.5522 29.1634 51.1906 29.1634C52.8233 29.1577 54.1556 27.3153 54.1556 25.0419Z" fill="#111111"/>
<path d="M50.0851 26.1021C50.4107 26.1021 50.6747 25.6351 50.6747 25.059C50.6747 24.4829 50.4107 24.0159 50.0851 24.0159C49.7595 24.0159 49.4955 24.4829 49.4955 25.059C49.4955 25.6351 49.7595 26.1021 50.0851 26.1021Z" fill="white"/>
<path d="M37.0857 25.0818C37.0857 25.0478 37.0857 25.0195 37.0857 24.9854C37.0857 24.4582 37.114 23.931 37.0687 23.4037C37.0517 23.2223 37.0403 22.9842 36.9383 22.8255C36.8079 22.6214 36.5755 22.5023 36.343 22.457C36.0936 22.406 35.8328 22.4343 35.572 22.4513C34.5119 22.5363 33.4461 22.5137 32.3916 22.3946C32.1592 22.3663 31.8757 22.3436 31.6716 22.491C31.4845 22.6271 31.3711 22.8822 31.3088 23.0919C31.1104 23.7212 31.1557 24.4299 31.1557 25.0818C31.1557 27.3552 32.4823 29.1976 34.1207 29.1976C35.7591 29.1976 37.0857 27.3552 37.0857 25.0818Z" fill="#111111"/>
<path d="M33.0719 26.0626C33.3975 26.0626 33.6615 25.5956 33.6615 25.0194C33.6615 24.4433 33.3975 23.9763 33.0719 23.9763C32.7463 23.9763 32.4823 24.4433 32.4823 25.0194C32.4823 25.5956 32.7463 26.0626 33.0719 26.0626Z" fill="white"/>
<path d="M46.6326 30.9947C46.6326 31.5616 46.1734 32.0265 45.6008 32.0265C45.0339 32.0265 44.2289 32.0378 44.2289 31.4709C44.2289 30.904 45.0282 29.9629 45.6008 29.9629C46.1734 29.9629 46.6326 30.4221 46.6326 30.9947Z" fill="#111111"/>
<path d="M41.4112 31.4709C41.4112 32.0378 40.6799 32.0265 40.113 32.0265C39.5461 32.0265 39.0812 31.5673 39.0812 30.9947C39.0812 30.4221 39.5404 29.9629 40.113 29.9629C40.6799 29.9629 41.4112 30.8983 41.4112 31.4709Z" fill="#111111"/>
<path d="M32.4823 33.7329C32.4823 33.7329 43.2594 39.6742 53.2655 33.7329" stroke="#111111" stroke-width="1.24722" stroke-miterlimit="10" stroke-linecap="round"/>
<path d="M56.4857 32.8825C57.6536 32.8825 58.6003 31.9358 58.6003 30.7679C58.6003 29.6001 57.6536 28.6533 56.4857 28.6533C55.3178 28.6533 54.3711 29.6001 54.3711 30.7679C54.3711 31.9358 55.3178 32.8825 56.4857 32.8825Z" fill="#FCB1B1"/>
<path d="M29.5967 32.8825C30.7645 32.8825 31.7113 31.9358 31.7113 30.7679C31.7113 29.6001 30.7645 28.6533 29.5967 28.6533C28.4288 28.6533 27.4821 29.6001 27.4821 30.7679C27.4821 31.9358 28.4288 32.8825 29.5967 32.8825Z" fill="#FCB1B1"/>
<path d="M18.0883 44.6745L20.7868 43.7051L23.1452 43.5463V42.1574H24.7212L25.5149 41.1596L28.6216 42.3615L28.4345 39.4418L31.3428 40.5927L32.3973 39.011C32.3973 39.011 37.698 42.9908 42.8456 50.5931C42.8456 50.5931 51.3267 40.7061 54.1386 39.9861C56.9505 39.2661 55.7147 41.1539 55.7147 41.1539L59.2126 40.0598L58.5776 41.7379L61.3782 41.1539V42.764L64.8817 42.4692L67.9431 44.6632L47.381 56.0582H38.6277L18.0883 44.6745Z" fill="white" stroke="#111111" stroke-width="1.24722" stroke-miterlimit="10" stroke-linecap="round" stroke-linejoin="round"/>
<path d="M67.9488 68.6326C61.3952 68.7403 55.0457 70.7472 49.7904 74.3754L46.8707 76.3937V52.4357L48.7132 51.2055C54.3597 47.4411 61.0097 45.1791 67.9488 44.6746V68.6326Z" fill="#00949B" stroke="#111111" stroke-width="1.24722" stroke-miterlimit="10" stroke-linecap="round" stroke-linejoin="round"/>
<path d="M18.0883 68.6326C24.6418 68.7403 30.9913 70.7472 36.2467 74.3754L39.1663 76.3937V52.4357L37.3238 51.2055C31.6773 47.4411 25.0273 45.1791 18.0883 44.6746V68.6326V68.6326Z" fill="#2FBCD3" stroke="#111111" stroke-width="1.24722" stroke-miterlimit="10" stroke-linecap="round" stroke-linejoin="round"/>
<path d="M46.8708 52.4355H39.172V76.9038H46.8708V52.4355Z" fill="#0BADB5" stroke="#111111" stroke-width="1.24722" stroke-miterlimit="10" stroke-linecap="round" stroke-linejoin="round"/>
<path d="M63.3397 52.4469C64.2298 52.5716 65.0915 52.8494 65.8909 53.2633C65.2559 53.5127 64.5756 53.7962 64.2241 54.3801C63.9123 54.8903 63.935 55.5876 64.2752 56.0808C64.6153 56.5741 65.2559 56.8348 65.8455 56.7271C65.7605 57.2714 64.9328 57.294 64.5983 57.7306C64.2582 58.1728 64.604 58.8701 65.1255 59.0855C65.6471 59.3009 66.231 59.1819 66.7753 59.0572C65.7151 60.0379 64.553 61.3135 64.8591 62.7251C66.129 62.6514 67.3989 62.5721 68.6688 62.4984C69.4058 62.453 70.1995 62.3906 70.7664 61.9144C71.3673 61.4155 71.5657 60.5652 71.4977 59.7885C71.4297 59.0118 71.1462 58.1954 71.4524 57.4811C71.5601 57.2317 71.7358 57.0106 71.8492 56.7611C72.2857 55.752 71.5261 54.6409 71.4354 53.541C71.339 52.3732 71.8605 51.3131 71.2256 50.2132C70.8798 49.6066 70.4036 49.034 69.7119 48.8243C69.0656 48.6315 68.357 48.7733 67.7107 48.9093C66.7073 49.1191 65.6528 49.3175 64.757 49.8221C63.8897 50.3153 62.8862 51.3697 63.3397 52.4469Z" fill="#FFDBC7" stroke="#111111" stroke-width="1.24722" stroke-miterlimit="10" stroke-linecap="round" stroke-linejoin="round"/>
<path d="M22.4251 52.8607C21.535 52.9854 20.6733 53.2632 19.874 53.6771C20.5089 53.9265 21.1892 54.21 21.5407 54.7939C21.8525 55.3041 21.8298 56.0014 21.4897 56.4947C21.1495 56.9879 20.5089 57.2487 19.9193 57.1409C20.0044 57.6852 20.8321 57.7079 21.1665 58.1444C21.5067 58.5866 21.1609 59.2839 20.6393 59.4993C20.1177 59.7148 19.5338 59.5957 18.9896 59.471C20.0497 60.4517 21.2119 61.7273 20.9058 63.1389C19.6359 63.0652 18.366 62.9859 17.0961 62.9122C16.3591 62.8668 15.5654 62.8045 14.9985 62.3282C14.3975 61.8294 14.1991 60.979 14.2671 60.2023C14.3352 59.4256 14.6186 58.6093 14.3125 57.8949C14.2048 57.6455 14.029 57.4244 13.9157 57.175C13.4791 56.1658 14.2388 55.0547 14.3295 53.9549C14.4259 52.787 13.9043 51.7269 14.5393 50.627C14.8851 50.0204 15.3613 49.4479 16.0529 49.2381C16.6992 49.0453 17.4079 49.1871 18.0542 49.3231C19.0576 49.5329 20.1121 49.7313 21.0078 50.2359C21.8752 50.7348 22.873 51.7836 22.4251 52.8607Z" fill="#FFDBC7" stroke="#111111" stroke-width="1.24722" stroke-miterlimit="10" stroke-linecap="round" stroke-linejoin="round"/>
</svg>
